<?xml version="1.0" encoding="UTF-8"?>
<svg viewBox="0 0 213.9 423.38" xmlns="http://www.w3.org/2000/svg" xmlns:xlink="http://www.w3.org/1999/xlink">
 <defs>
  <clipPath id="al">
   <path d="m-176.55 16.23a185.74 51.664 0 1 1 -371.48 247.95 185.74 51.664 0 1 1 371.48 -247.95z" fill="#0f0" fill-rule="evenodd" stroke="#000" stroke-linecap="round"/>
  </clipPath>
  <clipPath id="am">
   <path d="m-2.64-102.86a183.32 50.99 0 1 1 -366.63 -120.06 183.32 50.99 0 1 1 366.63 120.06z" fill="#0f0" fill-rule="evenodd" stroke="#000" stroke-linecap="round"/>
  </clipPath>
  <clipPath id="ak">
   <path d="m-155.26 306.25" fill="#0f0" fill-rule="evenodd" stroke="#000" stroke-linecap="round"/>
  </clipPath>
  <clipPath id="an">
   <path d="m-43.712-33.138a170.91 47.538 0 1 1 -341.81 104.08 170.91 47.538 0 1 1 341.81 -104.08z" fill="#0f0" fill-rule="evenodd" stroke="#000" stroke-linecap="round"/>
  </clipPath>
  <clipPath id="ao">
   <path d="m-214.42 243.53a36.425 10.132 0 1 1 -72.85 325.44 36.425 10.132 0 1 1 72.85 -325.44z" fill="#0f0" fill-rule="evenodd" stroke="#000" stroke-linecap="round"/>
  </clipPath>
  <clipPath id="as">
   <path d="m106.07-70.088a214.7 59.718 0 1 1 -429.39 0 214.7 59.718 0 1 1 429.39 0z" fill="#0f0" fill-rule="evenodd" stroke="#000" stroke-linecap="round"/>
  </clipPath>
  <clipPath id="aq">
   <path d="m404.99 140.07" fill="#0f0" fill-rule="evenodd" stroke="#000" stroke-linecap="round"/>
  </clipPath>
  <clipPath id="ar">
   <path d="m29.854-63.473a208.86 58.093 0 1 1 -417.71 23.682 208.86 58.093 0 1 1 417.71 -23.682z" fill="#0f0" fill-rule="evenodd" stroke="#000" stroke-linecap="round"/>
  </clipPath>
  <clipPath id="ap">
   <path d="m214.81-143.2a143.36 39.877 0 1 1 -286.73 -310.8 143.36 39.877 0 1 1 286.73 310.8z" fill="#0f0" fill-rule="evenodd" stroke="#000" stroke-linecap="round"/>
  </clipPath>
  <clipPath id="bb">
   <path d="m-105.76 1.6713a165.96 42.21 0 1 1 -331.91 235.97 165.96 42.21 0 1 1 331.91 -235.97z" fill="#0f0" fill-rule="evenodd" stroke="#000" stroke-linecap="round"/>
  </clipPath>
  <clipPath id="bc">
   <path d="m270.91-24.599a163.64 45.516 0 1 1 -327.28 -182.11 163.64 45.516 0 1 1 327.28 182.11z" fill="#0f0" fill-rule="evenodd" stroke="#000" stroke-linecap="round"/>
  </clipPath>
  <clipPath id="bd">
   <path d="m233.86-99.614a170.46 47.413 0 1 1 -340.92 -278.45 170.46 47.413 0 1 1 340.92 278.45z" fill="#0f0" fill-rule="evenodd" stroke="#000" stroke-linecap="round"/>
  </clipPath>
  <clipPath id="aj">
   <path d="m23.294-221.32a250.86 69.776 0 1 1 -501.72 -148.4 250.86 69.776 0 1 1 501.72 148.4z" fill="#0f0" fill-rule="evenodd" stroke="#000" stroke-linecap="round"/>
  </clipPath>
  <clipPath id="ai">
   <path d="m228.2-139a149.26 41.518 0 1 1 -298.53 -286.2 149.26 41.518 0 1 1 298.53 286.2z" fill="#0f0" fill-rule="evenodd" stroke="#000" stroke-linecap="round"/>
  </clipPath>
  <clipPath id="ah">
   <path d="m-353.03 273.55a88.923 24.734 0 1 1 -177.85 415.81 88.923 24.734 0 1 1 177.85 -415.81z" fill="#0f0" fill-rule="evenodd" stroke="#000" stroke-linecap="round"/>
  </clipPath>
  <clipPath id="ag">
   <path d="m455.76 113.87" fill="#0f0" fill-rule="evenodd" stroke="#000" stroke-linecap="round"/>
  </clipPath>
  <clipPath id="be">
   <path d="m490.44 5.7542" fill="#0f0" fill-rule="evenodd" stroke="#000" stroke-linecap="round"/>
  </clipPath>
  <linearGradient id="a" x1=".27688" x2=".92372" y1=".11219" y2=".73934" xlink:href="#ae"/>
  <linearGradient id="au" x1=".39837" x2=".39965" y1=".022724" y2=".89918" xlink:href="#af"/>
  <linearGradient id="c" x1=".72312" x2=".076284" y1=".88781" y2=".26066" xlink:href="#ae"/>
  <linearGradient id="at" x1=".46122" x2=".55134" y1=".097647" y2=".86918" xlink:href="#af"/>
  <linearGradient id="ae">
   <stop stop-color="#f2f2f2" offset="0"/>
   <stop stop-color="#e3e3e3" offset=".23806"/>
   <stop stop-color="#d25454" offset=".58928"/>
   <stop stop-color="#494949" offset=".8196"/>
   <stop stop-color="#6a6a6a" offset="1"/>
  </linearGradient>
  <linearGradient id="af">
   <stop stop-color="#515151" stop-opacity="0" offset="0"/>
   <stop stop-color="#828282" stop-opacity=".28" offset=".31034"/>
   <stop stop-color="#939393" stop-opacity=".4" offset=".89298"/>
   <stop stop-color="#797979" stop-opacity="0" offset="1"/>
  </linearGradient>
  <linearGradient id="b">
   <stop stop-color="#fbff15" stop-opacity=".551" offset="0"/>
   <stop stop-color="#f23505" stop-opacity=".492" offset="1"/>
  </linearGradient>
  <radialGradient id="aw" cx="146.4" cy="214.54" r="8.5863" gradientTransform="matrix(1.3037 -.29877 .68243 2.7799 -220.02 -379.2)" gradientUnits="userSpaceOnUse" xlink:href="#b"/>
  <radialGradient id="ax" cx="146.4" cy="214.54" r="8.5863" gradientTransform="matrix(1.3037 -.29877 .68243 2.7799 -250.83 -372.63)" gradientUnits="userSpaceOnUse" xlink:href="#b"/>
  <radialGradient id="av" cx="146.4" cy="214.54" r="8.5863" gradientTransform="matrix(1.3037 -.29877 .68243 2.7799 -278.62 -380.21)" gradientUnits="userSpaceOnUse" xlink:href="#b"/>
  <radialGradient id="ay" cx="146.4" cy="214.54" r="8.5863" gradientTransform="matrix(1.3037 -.29877 .68243 2.7799 -198.3 -380.72)" gradientUnits="userSpaceOnUse" xlink:href="#b"/>
  <radialGradient id="ba" cx="146.4" cy="214.54" r="8.5863" gradientTransform="matrix(1.3037 -.29877 .68243 2.7799 -264.97 -383.75)" gradientUnits="userSpaceOnUse" xlink:href="#b"/>
  <radialGradient id="az" cx="146.4" cy="214.54" r="8.5863" gradientTransform="matrix(1.3037 -.29877 .68243 2.7799 -234.16 -370.61)" gradientUnits="userSpaceOnUse" xlink:href="#b"/>
 </defs>
 <g fill="#3f3f3f" fill-rule="evenodd">
  <rect transform="matrix(.99963 -.027065 .04292 .99908 0 0)" x="86.82" y="266.54" width="14.997" height="137.27"/>
  <g stroke-linecap="round">
   <path d="m1.2054 162.02c-0.43668 4.1194-0.65625 8.2899-0.65625 12.531 0 61.847 47.689 112.06 106.44 112.06 58.749 0 106.41-50.215 106.41-112.06 0-4.2414-0.21957-8.4119-0.65625-12.531h-211.53z" stroke="#800000"/>
   <path d="m213.4 158.03c0 19.724-47.65 35.714-106.43 35.714-58.779 0-106.43-15.99-106.43-35.714s47.65-35.714 106.43-35.714c58.779 0 106.43 15.99 106.43 35.714z" stroke="#ececec"/>
  </g>
  <rect transform="rotate(17.629)" x="127.37" y="226.15" width="15" height="172.86"/>
  <rect transform="rotate(-20.717)" x="37.621" y="291.27" width="15" height="172.86"/>
 </g>
 <g fill-rule="evenodd">
  <g stroke="#000" stroke-linecap="round">
   <path d="m49.325 167.93c-0.28289 2.2462-0.22781 3.6419-1.8702 5.0347s-4.2126 2.0661-6.1349 2.3336c-1.9223 0.26747-4.4525-0.75294-5.8875-2.1743s-3.1035-4.3477-3.4166-6.5281c-0.31317-2.1804 1.1178-4.8132 2.0783-6.9187 0.96051-2.1055 2.2607-4.6115 3.9557-5.6585 1.6949-1.047 4.0297 0.74411 5.7482 1.71 1.7185 0.96585 4.7337 1.26 5.5551 3.4089 0.82143 2.1488 0.25484 6.5462-0.028061 8.7924z" clip-path="url(#as)" fill="url(#a)"/>
   <path d="m78.322 170.68c-0.44666 2.2785-0.48797 3.7104-2.2659 5.0205-1.7779 1.3102-4.4549 1.8192-6.4404 1.9584-1.9855 0.13916-4.503-1.082-5.8718-2.6367s-2.8712-4.6657-3.039-6.9186c-0.16782-2.2529 1.4806-4.8465 2.6107-6.9336s2.6359-4.5602 4.4434-5.5128c1.8075-0.95265 4.071 1.0434 5.7618 2.1519s4.7552 1.6205 5.4453 3.8767c0.69008 2.2561-0.19738 6.7157-0.64404 8.9942z" clip-path="url(#ar)" fill="url(#a)"/>
   <path d="m123.31 156.88c2.4912-0.75302 3.9312-1.4633 6.1617-0.38966 2.2305 1.0737 4.1392 3.4582 5.3188 5.3518 1.1796 1.8937 1.2908 5.0279 0.46899 7.1995-0.82181 2.1715-3.115 5.2918-5.2585 6.64-2.1434 1.3482-5.5773 1.0762-8.2375 1.0518-2.6602-0.024414-5.8998-0.21832-7.7917-1.5089-1.8919-1.2905-1.1024-4.5798-0.89149-6.8361s-0.88971-5.5603 0.98296-7.4275 6.7556-3.3279 9.2468-4.0809z" clip-path="url(#aq)" fill="url(#c)"/>
   <path d="m151.43 157.85c1.4668 1.4456 2.5058 2.177 2.6048 4.1334 0.098938 1.9564-0.83476 4.1858-1.7037 5.7227-0.8689 1.5369-3.0044 2.8014-4.8244 3.053-1.82 0.25159-4.8566-0.1598-6.6052-1.1383-1.7486-0.97853-2.8604-3.4674-3.8511-5.3249-0.99071-1.8575-2.0831-4.1818-1.9031-5.9851 0.17999-1.8033 2.7644-2.5007 4.4119-3.2089 1.6475-0.70814 3.5262-2.7244 5.5329-2.1306 2.0067 0.59381 4.8712 3.4331 6.338 4.8787z" clip-path="url(#ap)" fill="url(#a)"/>
   <path d="m115.86 193.74c-2.4303 0.14156-3.8951 0.47357-5.6899-0.98961-1.7947-1.4632-3.0108-4.0485-3.6707-6.0284-0.65987-1.9799-0.07737-4.8551 1.1438-6.6511s3.9878-4.1341 6.2316-4.8929c2.2438-0.75882 5.308 0.23762 7.7225 0.8401 2.4144 0.60248 5.319 1.4855 6.7585 3.0721 1.4394 1.5866 0.003784 4.4064-0.68024 6.4128s-0.4036 5.2519-2.5143 6.5419-6.871 1.5536-9.3013 1.6951z" clip-path="url(#ao)" fill="url(#a)"/>
   <path d="m82.45 193.74c-1.2264 2.3712-1.7329 3.9385-4.1171 4.8124-2.3842 0.87387-5.5029 0.57408-7.7394 0.088577-2.2364-0.48554-4.6222-2.6438-5.6326-4.8005-1.0105-2.1567-1.6674-6.0742-1.1275-8.6149 0.53993-2.5408 3.1943-4.873 5.1135-6.813 1.9192-1.9399 4.3773-4.1851 6.6791-4.6548 2.3018-0.46974 4.1578 2.4621 5.6673 4.2299s4.7272 3.3194 4.7627 6.0319c0.035492 2.7125-2.3796 7.3494-3.606 9.7206z" clip-path="url(#an)" fill="url(#a)"/>
   <path d="m170.21 163.69c0.61238 2.3888 1.2268 3.7807 0.12033 5.849-1.1064 2.0683-3.4408 3.7791-5.2812 4.8194s-4.812 1.0192-6.8347 0.15356c-2.0226-0.8656-4.8841-3.1625-6.074-5.2461s-0.79385-5.3235-0.66345-7.8409c0.13043-2.5174 0.4447-5.5766 1.7428-7.3156s4.3802-0.8589 6.5077-0.56821c2.1276 0.2907 5.2998-0.61798 6.992 1.2302s2.878 6.5298 3.4904 8.9186z" clip-path="url(#am)" fill="url(#a)"/>
   <path d="m91.144 173.58c-1.4667 1.4153-2.2162 2.4251-4.1542 2.4743-1.9381 0.049271-4.1206-0.92992-5.6195-1.8278-1.4989-0.89786-2.6969-3.0421-2.9006-4.849-0.20367-1.807 0.2788-4.801 1.2904-6.5067s3.5016-2.7438 5.364-3.6778c1.8624-0.93399 4.1892-1.957 5.9688-1.7342 1.7797 0.22288 2.4055 2.7972 3.0651 4.4448 0.65968 1.6476 2.6078 3.5564 1.9704 5.527-0.63737 1.9706-3.5176 4.7341-4.9843 6.1494z" clip-path="url(#al)" fill="url(#a)"/>
   <path d="m90.523 193.74c-2.3665-0.84582-3.8923-1.1212-5.0076-3.2355-1.1152-2.1143-1.2279-5.0616-1.0564-7.2091 0.17158-2.1475 1.8849-4.6448 3.7698-5.8588s5.457-2.3198 7.8952-2.1357c2.4383 0.18404 4.9481 2.3669 6.9994 3.9133s4.4551 3.5572 5.183 5.6454c0.72784 2.0883-1.7738 4.1887-3.2331 5.8193-1.4593 1.6307-2.502 4.8278-5.028 5.2022-2.5261 0.37439-7.1558-1.2953-9.5222-2.1411z" clip-path="url(#ak)" fill="url(#c)"/>
   <path d="m141.77 187.39c0.39377 1.7819 0.81368 2.8266-0.055832 4.3289-0.86952 1.5023-2.6384 2.7098-4.0253 3.4336-1.3869 0.72383-3.5842 0.63461-5.0587-0.055679-1.4745-0.69028-3.5339-2.4599-4.3624-4.0304-0.82844-1.5705-0.45532-3.9569-0.29652-5.8155s0.46698-4.1134 1.4701-5.3674 3.2608-0.52678 4.8272-0.25909c1.5663 0.26767 3.935-0.32582 5.1408 1.083s1.9669 4.9006 2.3606 6.6826z" clip-path="url(#aj)" fill="url(#a)"/>
   <path d="m140.8 172.44c1.4244 1.5834 2.4515 2.4029 2.4322 4.4286-0.019348 2.0257-1.1216 4.2691-2.114 5.8016-0.99237 1.5325-3.2753 2.7053-5.1697 2.852s-5.0034-0.46651-6.7478-1.5852c-1.7443-1.1187-2.7374-3.7569-3.6448-5.7359-0.90735-1.979-1.8907-4.4462-1.593-6.2965 0.29777-1.8504 3.0089-2.4098 4.7536-3.0385 1.7447-0.62871 3.8092-2.5934 5.8438-1.8558 2.0346 0.73756 4.8153 3.8463 6.2397 5.4297z" clip-path="url(#ai)" fill="url(#a)"/>
   <path d="m148.08 187.62c-1.7843 0.39041-2.8307 0.80855-4.3325-0.064835s-2.7067-2.6463-3.4283-4.0358c-0.72159-1.3896-0.62775-3.5886 0.066177-5.063 0.69392-1.4744 2.4693-3.5319 4.0429-4.3578 1.5736-0.82593 3.9612-0.44754 5.8212-0.28478 1.8599 0.16278 4.116 0.47589 5.369 1.4824 1.253 1.0066 0.52051 3.2648 0.24936 4.8319-0.27113 1.5671 0.31796 3.9391-1.0946 5.143-1.4125 1.2039-4.909 1.9585-6.6932 2.3489z" clip-path="url(#ah)" fill="url(#a)"/>
   <path d="m107.69 158.62c2.068-0.26938 3.2992-0.64255 4.9221 0.49806s2.8199 3.2754 3.5046 4.9267c0.68476 1.6514 0.36266 4.1437-0.57111 5.7529s-3.1549 3.7759-5.0258 4.5613c-1.8709 0.78543-4.55 0.12117-6.6498-0.24614-2.0998-0.36732-4.6356-0.94444-5.9624-2.2122s-0.27236-3.7648 0.18956-5.521c0.46191-1.7562 0.024063-4.5121 1.7488-5.7433s5.776-1.7471 7.844-2.0165z" clip-path="url(#ag)" fill="url(#c)"/>
   <path d="m165.02 166.49c2.1069-0.18184 3.3708-0.50566 4.9647 0.72138s2.7126 3.4425 3.3336 5.1457 0.18491 4.214-0.83198 5.8032-3.3626 3.6865-5.2926 4.3998-4.615-0.077652-6.7262-0.54227c-2.1112-0.46463-4.6548-1.161-5.9432-2.5038s-0.11012-3.8262 0.43521-5.585c0.54532-1.7588 0.22311-4.5702 2.0247-5.7416 1.8016-1.1713 5.9287-1.5156 8.0356-1.6975z" clip-path="url(#be)" fill="url(#c)"/>
   <path d="m107.69 159.54c1.2336 1.6136 2.1477 2.4708 1.9752 4.395-0.17251 1.9242-1.391 3.973-2.451 5.3544s-3.3194 2.3225-5.1315 2.3179c-1.8121-0.004669-4.721-0.82413-6.2941-2.0203s-2.3165-3.7797-3.0285-5.73-1.4591-4.3705-1.0353-6.1069c0.42384-1.7364 3.0437-2.062 4.7501-2.5269 1.7064-0.46494 3.8184-2.1756 5.6965-1.3196 1.878 0.85594 4.2849 4.0228 5.5186 5.6364z" clip-path="url(#bd)" fill="url(#a)"/>
   <path d="m46.288 172.28c1.1079 2.2034 2.0051 3.4322 1.3654 5.6891-0.63978 2.2569-2.5556 4.4264-4.1318 5.8354s-4.4842 2.0224-6.645 1.6081c-2.1609-0.41425-5.4466-2.048-7.0537-3.8299s-1.9113-5.0319-2.321-7.5194c-0.40962-2.4875-0.7552-5.5434 0.14209-7.5195 0.89727-1.976 4.0964-1.7736 6.2371-1.9435 2.1407-0.16988 5.0464-1.7344 7.094-0.28967 2.0476 1.4448 4.205 5.7659 5.313 7.9692z" clip-path="url(#bc)" fill="url(#a)"/>
   <path d="m59.075 187.19c-1.6469 1.6332-2.4981 2.8093-4.6127 2.7964-2.1146-0.012955-4.4608-1.2611-6.0646-2.387s-2.8373-3.7267-2.9982-5.8886c-0.16094-2.1619 0.46633-5.7137 1.6269-7.7099 1.1605-1.9962 3.9103-3.1418 5.9722-4.1865 2.062-1.0447 4.6332-2.1784 6.5659-1.8468 1.9327 0.33156 2.5278 3.4239 3.1913 5.4127 0.66346 1.9888 2.7227 4.3366 1.9612 6.6625-0.76152 2.3258-3.9951 5.5141-5.642 7.1472z" clip-path="url(#bb)" fill="url(#a)"/>
  </g>
  <path d="m52.828 177.88s1.6638-4.0189-0.83189-16.879-2.9116-19.693-2.9116-19.693 9.5667 8.8416 9.9827 16.477c0.41594 7.6359 4.1594 20.898 4.1594 20.898l-10.399-0.8038z" fill="url(#av)"/>
  <path d="m111.43 178.89s1.6638-4.0189-0.83191-16.879c-2.4956-12.86-2.9116-19.692-2.9116-19.692s9.5667 8.8416 9.9827 16.477c0.41596 7.6359 4.1594 20.898 4.1594 20.898l-10.399-0.8038z" fill="url(#aw)"/>
  <path d="m80.621 185.45s1.6638-4.0189-0.83189-16.879-2.9116-19.692-2.9116-19.692 9.5667 8.8416 9.9827 16.477c0.41592 7.6359 4.1594 20.898 4.1594 20.898l-10.399-0.8038z" fill="url(#ax)"/>
  <path d="m133.15 177.37s1.6638-4.0189-0.83191-16.879c-2.4956-12.86-2.9116-19.692-2.9116-19.692s9.5667 8.8416 9.9827 16.477c0.41596 7.6359 4.1594 20.898 4.1594 20.898l-10.399-0.8038z" fill="url(#ay)"/>
  <path d="m97.289 187.47s1.6638-4.0189-0.83191-16.879c-2.4956-12.86-2.9116-19.692-2.9116-19.692s9.5667 8.8416 9.9827 16.477c0.41596 7.6359 4.1594 20.898 4.1594 20.898l-10.399-0.8038z" fill="url(#az)"/>
  <path d="m66.479 174.34s1.6638-4.0189-0.83191-16.879c-2.4956-12.86-2.9116-19.693-2.9116-19.693s9.5667 8.8416 9.9827 16.477c0.41594 7.6359 4.1594 20.898 4.1594 20.898l-10.399-0.8038z" fill="url(#ba)"/>
 </g>
 <path d="m107.69 122.31l-68.844 63.219c3.494 0.974 7.182 1.868 11.032 2.688l71.375-65.563c-4.444-0.203-8.963-0.33102-13.563-0.34402zm-8.187 0.094c-4.994 0.11298-9.906 0.35098-14.688 0.68799l-61.969 56.875c3.065 1.318 6.393 2.557 9.969 3.718l66.688-61.281zm29.312 0.688l-72.312 66.406c3.856 0.69501 7.846 1.341 11.968 1.875l73.032-67.094c-4.127-0.47803-8.349-0.88-12.688-1.187zm-52.875 0.75c-5.649 0.573-11.103 1.29-16.312 2.156l-50.407 46.312c2.356 1.81 5.134 3.55 8.313 5.188l58.406-53.656zm72.625 1.343l-72.969 67c4.188 0.431 8.486 0.776 12.875 1.032l71.907-66.032c-3.799-0.745-7.734-1.414-11.813-2zm-99.094 2.782c-7.344 1.579-14.066 3.444-20.031 5.562l-28.937 26.563c0.502 2.965 2.094 5.834 4.625 8.562l44.343-40.687zm117.41 0.625l-70.75 64.968c3.505 0.11801 7.059 0.18802 10.656 0.18802 1.049 0 2.083-0.020996 3.125-0.031006l67.844-62.282c-3.43-1.031-7.067-1.966-10.875-2.843zm16.812 4.781l-65.531 60.156c5.112-0.18201 10.098-0.45801 14.969-0.875l60.218-55.344c-2.946-1.382-6.166-2.711-9.656-3.937zm14.844 6.594l-56.375 51.75c5.83-0.69101 11.435-1.558 16.75-2.563l47.562-43.656c-2.165-1.938-4.847-3.77-7.937-5.531zm-185.34 1.062c-4.917 3.036-8.56 6.326-10.687 9.813l10.687-9.813zm196.94 8.469l-40.719 37.406c8.216-2.012 15.519-4.422 21.719-7.125l21.968-20.156c0.069-0.52499 0.093994-1.063 0.093994-1.594 0-2.943-1.059-5.795-3.062-8.531z" fill="#515151" fill-rule="evenodd" stroke="#000" stroke-linecap="round"/>
 <g fill="#7f7f7f" fill-rule="evenodd" stroke="#000">
  <g stroke-width="1.109">
   <path d="m53.516 138.66c33.743 1.909 30.967 12.342 16.983 19.726-13.983 7.3838-45.128 15.58-42.808 1.4427 2.3205-14.138 22.328-19.323 25.824-21.168z"/>
   <path d="m85.336 153.81c33.743 1.909 30.967 12.342 16.983 19.726-13.983 7.3838-45.128 15.58-42.808 1.4427 2.3205-14.138 22.328-19.323 25.824-21.168z"/>
  </g>
  <g stroke-width="1.153">
   <path d="m142 128.19l45.311 16.356c6.5281 3.2541 4.7429 9.6598-2.518 9.035l-45.542-17.683c-4.6403-1.8017-3.4327-7.115 2.7492-7.7086z"/>
   <path d="m133.92 139.3l45.311 16.356c6.529 3.254 4.743 9.66-2.518 9.035l-45.542-17.683c-4.64-1.801-3.433-7.115 2.749-7.708z"/>
   <path d="m122.8 149.4l45.311 16.356c6.5281 3.2541 4.7429 9.6598-2.518 9.035l-45.542-17.683c-4.6403-1.8017-3.4327-7.115 2.7492-7.7086z"/>
  </g>
 </g>
 <g fill-rule="evenodd">
  <path d="m114.12 163.74c-2.1671 1.956 65.234 0.93716 63.571-5.7143-1.6629-6.6514-11.122-13.979-17.143-20-7.4933-7.4933-3.5532-32.894 0-40 4.0122-8.0244 10.575-13.729 12.857-22.857 1.7358-6.943 1.4286-15.069 1.4286-22.857 0-7.4966-6.3866-17.059-10-24.286-4.2946-8.5892-7.5671-14.554-10-24.286-2.4329-9.7316-30.714 2.381-30.714 4.2857v5.7143c0 3.4311 0.82474 8.1296 0 11.429-0.87891 3.5156-2.9823 6.929-3.5714 9.2857-1.0031 4.0125-2.1428 6.7332-2.1428 11.429 0 3.4766-0.05188 6.9352 0.71429 10 0.92267 3.6906 1.1995 6.2266 2.1428 10 0.88712 3.5484 2.9712 6.999 3.5714 10 0.78952 3.9476 2.1428 9.5336 2.1428 14.286 0 4.0345 0.98953 9.6132 0 13.571-0.94186 3.7674-2.5151 7.173-4.2857 10.714-1.95 3.9002-2.1428 7.3379-2.1428 12.143 0 4.334 0.71426 8.0478 0.71426 12.143 0 4.8707-0.35373 8.5578-1.4286 12.857-0.9808 3.9232-3.5472 10.187-5.7143 12.143z" fill="url(#au)"/>
  <path d="m77.109 175.43c0.12329 0.60757-34.282 3.3877-34.282-0.97189v-44.286c0-0.40735 8.4436-28.753 10.436-38.571 2.068-10.191 0.66603-18.359-2.3191-25.714-3.1506-7.763-7.0306-15.895-10.436-24.286-3.4053-8.3907 49.415-38.392 49.72-36.887 0.30539 1.5048 0.77097 3.7768 0.40997 5.5558-0.5918 2.9165-0.81992 6.9175-0.81992 10.102 0 3.2935-0.62433 6.1071-1.2299 9.0914-0.79617 3.9236-1.3709 8.4287-2.8697 12.122-1.5974 3.9359-2.0498 7.47-2.0498 12.122 0 6.4275 0.81992 12.947 0.81992 19.193 0 5.1392 0.57089 11.003 2.4598 15.657 1.3383 3.2975 1.9417 6.8048 3.2797 10.102 1.4934 3.6797 2.4598 8.0212 2.4598 12.122 0 5.032-0.40994 10.252-0.40994 15.152 0 6.7141-2.754 11.958-4.9196 18.183-2.1469 6.1717-5.6241 13.069-6.9693 19.698-0.95683 4.7153-3.403 11.009-3.2797 11.617z" fill="url(#at)"/>
 </g>
</svg>
