<?xml version="1.0" encoding="UTF-8"?>
<svg viewBox="0 0 446.379 412.104" xmlns="http://www.w3.org/2000/svg">
 <path d="m100.885,160.976c-.51.204-.919.51-1.226.818-.409.306-.613.509-.919.509-.715.307-1.737-.102-3.065-1.124s-2.042-1.736-2.248-2.451c-.103-.308.612-2.044 1.941-5.21 1.43-3.065 2.656-5.824 3.677-8.275 .92-2.247 2.044-5.109 3.577-8.48 1.43-3.269 2.145-5.108 2.043-5.414 0,0 0,.101.102.204 .102,0 0,.102-.206.102-3.063,1.022-6.129,1.839-8.887,2.657-.512.102-.715.102-.818.102-.103.102-.306.205-.612.307-.307.204-.511.307-.715.408-.817.205-1.532-.101-2.35-.918s-1.328-1.533-1.636-2.248c-.101-.409-.101-.817-.101-1.226 .101-.409.409-.612.715-.919 .613-.205 1.736-.715 3.474-1.329 1.634-.612 3.37-1.226 4.902-1.736 3.065-.92 6.131-1.838 9.298-2.656 .409,0 .715-.103.817-.206 .307,0 .613-.203 1.021-.612 .409-.306.714-.409.918-.511s.715,0 1.533.103c.817.205 1.328.306 1.533.409 .409.103.715.409 1.124.818 .305.306.409.51.511.51 0,.103.203.103.51.205 .206,0 .409.103.512.307s-.512,1.635-1.636,4.292c-1.124,2.757-2.553,6.231-4.29,10.318-.205.409-.409.817-.714,1.226-3.168,7.867-4.701,11.851-4.701,12.056 0-.205.614-.409 1.839-.817 .206,0 .308-.103.308-.103 2.042-.51 3.983-1.021 5.823-1.43s2.759-.612 2.657-.612c1.226-.306 2.35-.306 3.167.102 .918.511 1.531.919 1.735,1.532 .205.92.307,1.635.307,2.248s-.307,1.022-1.021,1.226c-.206.103-.409.205-.613.205-.308.102-.511.102-.615.204-.305,0-.714.205-1.429.511-.817.307-1.43.51-1.941.715-.817.204-2.248.612-4.087,1.124-1.941.51-3.474.918-4.598,1.226-.612.204-1.533.51-2.553.919-1.124.409-1.839.612-2.248.715-.201-.006-.509.097-.815.199z" fill="#a16121" fill-rule="evenodd"/>
 <path d="m110.49,108.566c-.614-.102-1.226-.102-1.738.102-.509.103-.817.103-1.226.103-.816-.205-1.633-1.124-2.451-2.861-.715-1.634-1.022-2.86-.919-3.678 .102-.409 1.635-1.736 4.802-4.188 3.064-2.452 5.823-4.597 8.069-6.437s4.904-4.086 8.172-6.64 5.007-4.086 5.11-4.393c-.104.204-.104.204 0,.306 .102,0 0,0-.307-.102-3.68-.613-7.152-1.431-10.422-2.146-.51-.103-.816-.206-.918-.206h-.817c-.307-.101-.613,0-.818-.101-.918-.205-1.634-.92-1.941-2.146-.409-1.328-.51-2.349-.409-3.166 .104-.512.308-.92.512-1.227 .305-.409.715-.511 1.226-.511 .817,0 2.144.102 4.189.409 2.042.205 4.086.614 5.925.92 3.677.714 7.255,1.43 10.83,2.35 .511.101.817.204.919.204 .307.102.816,0 1.431-.103 .612,0 1.021-.101 1.226,0 .203,0 .715.308 1.431.92 .817.612 1.225,1.021 1.327,1.226 .409.307.614.817.715,1.328 .205.614.205.92.308.92 0,.101.101.204.307.409 .305.101.409.408.409.612s-1.33,1.43-3.986,3.575c-2.553,2.146-5.925,4.803-9.808,8.072-.409.204-.918.512-1.431.817-7.458,6.231-11.238,9.502-11.238,9.706 0-.204.819-.102 2.248.204 .206,0 .409.103.409.103 2.35.511 4.598,1.021 6.64,1.635 2.045.51 3.169.817 3.065.817 1.43.307 2.554.919 3.167,1.839s.919,1.736.816,2.451c-.203,1.023-.406,1.839-.816,2.453s-.919.919-1.737.715c-.204,0-.509-.103-.715-.103-.307-.204-.612-.204-.715-.204-.305-.103-.918-.103-1.736-.205-.921-.204-1.738-.204-2.35-.409-.921-.103-2.554-.51-4.7-1.021-2.248-.613-4.087-1.022-5.312-1.227-.817-.204-1.839-.306-3.167-.509s-2.146-.308-2.657-.409c-.307.001-.614-.102-.919-.204z" fill="#a16121" fill-rule="evenodd"/>
 <path d="m108.958,58.607c-.715.306-1.33.818-1.635,1.33-.512.612-.818.918-1.227,1.123-1.021.409-2.553,0-4.699-1.123s-3.372-2.147-3.883-3.065c-.203-.512.409-3.168 1.736-8.072s2.556-9.297 3.577-12.975c.817-3.576 1.941-8.071 3.372-13.282s2.144-7.969 1.941-8.376c.103.204.103.307.203.204 .103,0 0,.103-.409.306-4.29,2.044-8.582,3.985-12.463,5.722-.716.204-1.022.307-1.124.409-.205.103-.409.307-.92.613l-.92.614c-1.123.51-2.349.306-3.678-.715-1.328-1.125-2.35-2.044-2.758-3.065-.308-.613-.511-1.226-.511-1.737 0-.613.409-1.021.919-1.43 .817-.612 2.35-1.533 4.7-2.86 2.35-1.227 4.7-2.453 6.948-3.577 4.29-2.042 8.683-3.983 13.077-5.822 .612-.306 1.021-.511 1.123-.511 .409-.204.819-.512 1.431-1.124s.918-.919 1.226-1.021c.307-.205 1.022-.205 2.248-.103 1.225,0 2.042.103 2.349.205 .614,0 1.226.408 1.738.919 .612.409.918.715 1.021.715 0,.102.204,0 .613.102 .409,0 .717.103.92.307 .204.306-.409,2.554-1.431,6.845s-2.452,9.603-4.085,15.937c-.206.614-.409,1.227-.715,1.941-3.065,12.362-4.495,18.595-4.394,18.799-.101-.103.715-.715 2.452-1.43 .307-.204.51-.306.51-.306 2.862-1.227 5.62-2.35 8.276-3.371 2.555-1.022 3.883-1.533 3.779-1.533 1.738-.715 3.372-.92 4.702-.512 1.429.512 2.347,1.124 2.757,1.941 .613,1.226.919,2.248 1.021,3.167 .101,1.021-.204,1.634-1.226,2.145-.306.103-.511.204-.817.409-.509.102-.817.306-.918.306-.308.205-1.023.612-2.045,1.124-1.021.613-1.941,1.124-2.657,1.43-1.021.511-3.064,1.43-5.721,2.554-2.861,1.124-4.904,2.044-6.436,2.759-1.022.511-2.249,1.124-3.678,1.941-1.533.817-2.555,1.327-3.167,1.635-.307.099-.714.305-1.122.508z" fill="#a16121" fill-rule="evenodd"/>
 <path d="m96.696,160.976c-.51.204-.918.51-1.225.818-.409.306-.716.509-.92.509-.715.307-1.736-.102-3.065-1.124s-2.042-1.736-2.247-2.451c-.103-.308.511-2.044 1.941-5.21 1.43-3.065 2.656-5.824 3.575-8.275 1.023-2.247 2.146-5.109 3.679-8.48 1.431-3.269 2.146-5.108 2.043-5.414 0,.204.103.204.103.204 .103,0 0,.102-.204.102-3.167,1.022-6.13,1.839-8.889,2.657-.511.102-.714.102-.817.102-.101.102-.306.205-.612.307-.306.204-.512.307-.715.408-.817.205-1.532-.101-2.35-.918s-1.43-1.533-1.633-2.248c-.103-.409-.103-.817-.103-1.226 .103-.409.307-.612.715-.919 .612-.205 1.736-.715 3.474-1.329 1.633-.612 3.371-1.226 4.904-1.736 3.064-.92 6.129-1.838 9.296-2.656 .409,0 .715-.103.817-.206 .205,0 .613-.203 1.022-.612 .409-.306.715-.409.919-.511s.715,0 1.531.103c.817.205 1.33.306 1.533.409 .409.103.715.409 1.124.818 .308.306.409.51.511.51 0,.103.205.103.409.205 .307,0 .511.103.613.307s-.51,1.635-1.634,4.292c-1.124,2.757-2.556,6.231-4.291,10.318-.205.409-.409.817-.715,1.226-3.168,7.867-4.802,11.851-4.701,12.056 0-.205.614-.409 1.84-.817 .204,0 .306-.103.306-.103 2.042-.51 3.984-1.021 5.823-1.43s2.759-.612 2.657-.612c1.226-.306 2.35-.306 3.167.102 .918.511 1.533.919 1.634,1.532 .306.92.409,1.635.409,2.248s-.306,1.022-1.021,1.226c-.205.103-.409.205-.613.205-.308.102-.511.102-.613.204-.307,0-.715.205-1.431.511-.817.307-1.431.51-1.941.715-.817.204-2.248.612-4.087,1.124-1.941.51-3.474.918-4.597,1.226-.715.204-1.533.51-2.554.919-1.124.409-1.838.612-2.248.715-.204-.006-.512.097-.819.199z" fill-rule="evenodd"/>
 <path d="m106.301,108.566c-.614-.102-1.226-.102-1.738.102-.51.103-.918.103-1.225.103-.817-.205-1.635-1.124-2.452-2.861-.817-1.634-1.021-2.86-.919-3.678 .102-.409 1.634-1.736 4.802-4.188 3.065-2.452 5.823-4.597 8.071-6.437s4.903-4.086 8.174-6.64 5.005-4.086 5.005-4.393c0,.204 0,.204.102.306-.102,0-.204,0-.409-.102-3.575-.613-7.152-1.431-10.318-2.146-.511-.103-.817-.206-.919-.206h-.817c-.307-.101-.613,0-.92-.101-.919-.205-1.531-.92-1.941-2.146-.306-1.328-.511-2.349-.306-3.166 .101-.512.306-.92.51-1.227 .206-.409.715-.511 1.226-.511 .817,0 2.146.102 4.189.409 2.042.205 4.085.614 5.925.92 3.678.714 7.254,1.43 10.829,2.35 .511.101.817.204.92.204 .307.102.818,0 1.43-.103 .613,0 .92-.101 1.226,0 .205,0 .715.308 1.431.92 .817.612 1.226,1.021 1.327,1.226 .409.307.614.817.715,1.328 .206.614.206.92.308.92 0,.101.101.204.307.409 .305.101.409.408.409.612s-1.33,1.43-3.986,3.575c-2.553,2.146-5.925,4.803-9.808,8.072-.407.204-.918.512-1.429.817-7.459,6.231-11.238,9.502-11.238,9.706 0-.204.714-.102 2.146.204 .307,0 .51.103.51.103 2.351.511 4.598,1.021 6.641,1.635 2.043.51 3.167.817 3.064.817 1.431.307 2.556.919 3.169,1.839s.918,1.736.817,2.451c-.206,1.023-.409,1.839-.817,2.453s-.921.919-1.738.715c-.203,0-.51-.103-.715-.103-.409-.204-.612-.204-.715-.204-.305-.103-.918-.103-1.735-.205-1.022-.204-1.736-.204-2.35-.409-.918-.103-2.555-.51-4.801-1.021-2.248-.613-3.985-1.022-5.211-1.227-.817-.204-1.838-.306-3.167-.509s-2.145-.308-2.656-.409c-.311.001-.617-.102-.923-.204z" fill-rule="evenodd"/>
 <path d="m104.768,58.607c-.715.306-1.33.818-1.635,1.33-.51.612-.817.918-1.226,1.123-1.021.409-2.554,0-4.699-1.123s-3.474-2.147-3.882-3.065c-.204-.512.409-3.168 1.737-8.072s2.554-9.297 3.473-12.975c.92-3.576 2.044-8.071 3.474-13.282s2.043-7.969 1.941-8.376c.102.204.102.307.205.204 .102,0 0,.103-.41.306-4.29,2.044-8.582,3.985-12.463,5.722-.715.204-1.022.307-1.124.409-.205.103-.409.307-.92.613-.409.205-.613.409-.919.614-1.124.51-2.35.306-3.679-.715-1.328-1.125-2.349-2.044-2.859-3.065-.204-.613-.41-1.226-.41-1.737 0-.613.41-1.021.92-1.43 .817-.612 2.349-1.533 4.699-2.86 2.35-1.227 4.701-2.453 6.948-3.577 4.291-2.042 8.582-3.983 13.078-5.822 .612-.306 1.021-.511 1.124-.511 .409-.204.818-.512 1.429-1.124 .512-.612.921-.919 1.227-1.021 .306-.205 1.021-.205 2.248-.103 1.226,0 2.042.103 2.35.205 .613,0 1.225.408 1.737.919 .612.409.817.715 1.021.715 0,.102.206,0 .615.102 .409,0 .715.103.918.307 .104.306-.409,2.554-1.429,6.845s-2.453,9.603-4.087,15.937c-.204.614-.511,1.227-.817,1.941-2.963,12.362-4.392,18.595-4.292,18.799-.101-.103.715-.715 2.452-1.43 .307-.204.511-.306.511-.306 2.861-1.227 5.62-2.35 8.275-3.371 2.554-1.022 3.883-1.533 3.78-1.533 1.737-.715 3.371-.92 4.7-.512 1.429.512 2.35,1.124 2.759,1.941 .612,1.226.918,2.248 1.021,3.167 .104,1.021-.205,1.634-1.226,2.145-.305.103-.612.204-.918.409-.409.102-.715.306-.817.306-.409.205-1.023.612-2.043,1.124-1.022.613-1.941,1.124-2.657,1.43-1.021.511-3.065,1.43-5.823,2.554s-4.904,2.044-6.335,2.759c-1.021.511-2.247,1.124-3.678,1.941-1.533.817-2.554,1.327-3.166,1.635-.311.099-.719.305-1.128.508z" fill-rule="evenodd"/>
 <path d="m179.348,254.149c12.669-26.769 26.768-47.405 42.706-63.036 15.73-15.834 34.02-24.212 52.101-30.24 17.573-6.231 32.897-8.275 54.249-6.13 21.251,2.044 55.17,5.006 72.538,18.798 16.855,13.588 24.211,38.006 29.116,62.216 4.803,23.806 10.014,59.87-.919,79.792-11.342,19.615-48.631,30.343-66.611,37.288-18.494,6.438-32.082,7.256-42.297,2.046-3.473.407-7.149,2.042-10.625,4.494-3.78,2.45-7.355,5.721-11.136,10.216-3.473,1.43-6.027,1.84-8.48.818-2.247-1.023-4.393-3.473-5.617-6.948-4.496,2.045-7.766,2.86-11.033,2.045-3.271-.817-5.723-3.271-7.765-6.948-5.107,4.29-9.094,5.006-12.363,3.268-3.269-1.837-5.823-7.252-7.254-15.117h-38.004c-9.502-30.855-19.002-61.708-28.606-92.562z" fill-rule="evenodd" stroke="#000" stroke-miterlimit="10" stroke-width=".036"/>
 <path d="m235.229,182.941c5.109,1.635 10.22,4.701 16.552,9.196 6.232,4.086 15.429,16.243 19.719,17.161 3.677.41 3.984-4.903 3.27-12.36-.716-7.458-2.962-17.674-7.152-31.465-5.925,2.042-11.238,5.004-16.756,7.763-5.414,3.065-10.624,5.925-15.633,9.705z" fill="#a16121" fill-rule="evenodd" stroke="#000" stroke-miterlimit="10" stroke-width=".036"/>
 <path d="m281 161.59c0.817 1.532 3.167 4.904 6.64 8.991 3.271 4.086 11.139 15.018 14.204 16.244 2.655 1.021 2.042-5.109 3.677-10.114 1.532-5.209 3.165-12.158 5.313-20.842-6.335 0.715-11.953 2.044-16.858 2.861-5.108 0.715-9.298 2.042-12.976 2.86z" fill="#a16121" fill-rule="evenodd" stroke="#000" stroke-miterlimit="10" stroke-width=".036"/>
 <path d="m320.334,157.4c7.766,0 14.405.512 21.046,1.124 6.232.409 11.951,1.329 17.162,2.35-5.618,6.845-10.93,14.201-16.345,22.476-5.721,8.275-11.852,26.666-15.631,26.357-3.578-1.125-5.723-21.759-6.438-30.75-1.225-8.581-1.021-16.142.206-21.557z" fill="#a16121" fill-rule="evenodd" stroke="#000" stroke-miterlimit="10" stroke-width=".036"/>
 <path d="m362.833,161.589c6.947.92 13.181,2.453 18.288,4.189 5.209,1.839 8.888,3.883 12.261,6.54-12.977,10.829-22.068,16.857-27.279,18.082-5.416,1.022-3.779-6.334-4.187-11.033-.716-4.905-.412-10.83.917-17.778z" fill="#a16121" fill-rule="evenodd" stroke="#000" stroke-miterlimit="10" stroke-width=".036"/>
 <path d="m332.081,225.951c-3.473.817-6.846,2.145-10.112,4.392-3.679,2.148-7.153,4.803-10.014,8.378-2.655,3.578-4.8,7.561-6.436,12.771-2.246,4.905-4.494,10.32-5.518,16.653-1.327,6.233-1.122,14.714-.51,20.741 .917,5.72 2.248,10.113 5.107,13.585 14.304-7.762 22.579-13.075 25.234-17.163 2.35-4.085-5.617-4.697-9.706-6.538-4.188-2.145-9.5-3.779-15.528-5.313 4.496-1.122 10.113-2.145 16.448-2.654 6.232-.818 20.536.305 21.658-1.331 .716-1.837-10.828-5.822-16.14-9.603-5.519-3.883-10.729-8.58-16.042-13.69 12.977,2.963 21.557,3.985 25.748,2.657 4.084-1.532-.412-6.742-.921-10.522-.713-3.678-1.938-8.173-3.268-12.363z" fill="#a16121" fill-rule="evenodd" stroke="#000" stroke-miterlimit="10" stroke-width=".036"/>
 <path d="m423.928,217.88c1.84,7.252 3.271,13.383 4.29,19.513 1.022,5.925 1.635,11.136 1.84,16.041-5.822,0-12.771.203-20.841.203-8.48,0-27.177,2.248-28.503-.407-1.636-3.271 12.972-12.159 20.228-17.981 7.15-5.823 14.813-11.749 22.986-17.369z" fill="#a16121" fill-rule="evenodd" stroke="#000" stroke-miterlimit="10" stroke-width=".036"/>
 <path d="m430.875,255.271c-4.495,3.678-9.705,6.846-15.223,10.321-5.925,3.164-18.901,6.64-18.388,9.192 .202,2.045 15.117,3.271 21.146,4.803 5.825,1.43 10.625,2.758 14.405,3.984 .206-3.577.206-7.662 0-12.26-.205-4.801-1.224-10.012-1.94-16.04z" fill="#a16121" fill-rule="evenodd" stroke="#000" stroke-miterlimit="10" stroke-width=".036"/>
 <path d="m433.123,291.438c-4.394.817-8.378,1.84-11.953,2.657-4.088.818-9.705.51-10.115,2.248-.51,1.327 5.415,3.88 8.274,6.538 2.861,2.247 5.621,5.414 8.687,8.377 1.225-4.905 2.45-8.99 3.268-12.26 .817-3.472 1.429-5.72 1.839-7.56z" fill="#a16121" fill-rule="evenodd" stroke="#000" stroke-miterlimit="10" stroke-width=".036"/>
 <path d="m316.451,321.781c-9.501-.512-17.776-.512-25.233,0-7.562.511-13.589,1.021-19.209,3.065-6.131,1.838-11.033,4.394-15.121,8.07-4.494,3.271-7.252,7.865-8.275,12.158-.814,4.086 2.248,9.911 4.089,12.36 1.839,1.942 3.472,1.738 6.027,1.331 2.247-.514 3.78-1.331 7.354-3.681 3.476-2.86 7.766-6.641 13.281-12.155-2.043,4.29-4.188,7.865-6.025,10.317-1.84,2.35-3.78,3.986-5.415,4.495 .612,1.838 1.635,3.27 3.473,4.29 1.635.817 4.189,1.327 6.845,1.126 2.248-.616 4.903-1.533 7.969-3.578 2.962-2.347 6.026-5.412 9.604-9.603 0,0-1.84,5.415-4.189,8.582-2.248,3.065-4.903,3.781-4.903,3.781 2.758,4.29 5.413,6.332 7.969,6.538 2.35-.309 3.574-3.271 7.252-6.131 3.577-2.963 12.363-8.07 14.203-11.034 1.327-3.371-1.942-5.107-4.7-7.967-2.761-3.271-11.546-9.093-11.443-9.605 0-.51 7.253,2.963 11.136,6.438 3.678,2.86 7.152,6.845 10.831,11.542 4.7,2.762 10.522,4.295 17.471,3.781 6.842-.51 12.973-2.655 23.905-6.435 10.931-4.089 29.116-10.523 40.354-16.552 10.729-6.026 18.491-12.771 23.701-19.82-10.011-7.15-16.141-12.258-17.98-15.733-1.736-3.78 2.145-4.085 6.54-5.313 4.085-1.328 9.398-2.248 17.163-2.35l.817-4.596c-9.504-1.737-17.676-3.372-24.11-4.905-6.846-1.737-13.794-3.271-15.327-5.005-1.734-1.943 1.229-3.065 6.948-6.13 5.618-3.271 14.917-7.664 27.481-13.181-10.726.307-20.023.512-28.299.614-8.58,0-18.594,1.328-21.351-.41-2.862-1.939-3.065-4.598 4.493-11.136 7.46-6.845 20.23-16.652 39.436-29.423-2.859-7.56-5.822-13.893-8.48-19.41-2.859-5.619-5.107-9.705-7.967-13.485-3.168-3.882-6.742-7.049-10.729-9.501-7.763,7.254-13.996,12.464-19.818,15.632-6.027,3.269-11.545,4.699-14.202,3.065-2.655-2.247-1.838-11.136-1.94-15.631-.407-5.007-.407-9.093 0-13.078-4.804,5.926-9.501,12.566-14.098,20.332-4.701,7.764-10.219,20.637-13.794,25.232-3.982,3.985-7.663,3.678-9.5.308-2.248-3.575-2.86-12.157-3.475-20.636-.919-8.684-1.431-19.004-1.533-30.957l-5.413-.306c-.817,6.641-1.84,12.771-3.064,18.798-1.431,5.823-2.556,14.405-4.599,16.245-2.247,1.225-4.088-2.044-8.274-7.049-4.394-5.109-10.421-12.67-18.084-23.09l-7.252,2.656c3.063,12.159 5.107,21.965 5.719,29.832 .512,7.868-.102,14.404-1.84,16.856-2.042,1.94-5.821-.612-10.215-3.78-5.006-3.269-12.158-11.442-17.471-15.017-5.413-4.087-10.01-6.335-14.2-7.867-8.07,6.641-15.018,13.383-21.249,21.351-6.436,7.561-11.646,16.346-16.447,24.826-4.905,8.276-8.89,16.346-12.362,24.621l27.584,88.781c4.7-.817 10.319-1.533 16.039-1.327 5.618-.206 12.158.51 18.799,1.327 .714-3.883 2.758-7.56 6.948-11.032 4.084-3.781 10.522-7.562 16.957-10.116 6.232-2.556 13.078-4.804 20.126-5.211 6.742-.817 13.793-.41 20.74.819-4.19-5.519-7.56-11.752-9.708-18.696-2.348-7.051-3.982-16.246-3.78-23.294 0-7.256 1.125-13.588 3.78-20.229 2.148-7.256 5.214-15.733 11.139-21.456 5.925-6.028 15.019-11.542 24.519-13.382 9.195-1.94 19.205-1.533 30.446,1.635-7.561-.51-13.896-.41-19.414-.103-5.411.408-10.009,1.023-13.383,2.248 1.636,4.902 3.168,8.99 4.191,13.383 1.122,4.19 3.267,9.298 2.042,11.75-1.841,1.735-7.56,1.123-11.238.918-4.19-.612-9.298-1.735-11.34-2.248-1.94-.407-1.94-.407 0,0 1.939,2.556 5.617,5.211 10.625,8.789 5.005,3.574 17.471,8.682 19.206,11.439 1.125,2.046-7.459,2.556-11.136,3.065-3.985.308-7.663.41-11.85.715-4.089.41-8.584.309-13.079.817 7.56,1.533 13.181,2.963 16.858,4.7 3.473,1.533 5.005,3.271 5.005,5.211 .103,1.532-.51,2.247-4.598,5.721-4.598,3.577-11.646,8.582-21.966,15.428-.203,1.737.614,3.985 2.452,6.743 1.533,2.761 4.191,5.929 7.561,9.913z" fill="#ffc080" fill-rule="evenodd" stroke="#000" stroke-miterlimit="10" stroke-width=".036"/>
 <path d="m175.669,199.389c.613-3.166 3.168-7.049 7.663-11.646 4.29-5.108 11.954-11.238 18.696-16.039 6.539-4.802 14.405-9.297 20.841-12.259 6.027-3.372 11.44-5.21 15.836-6.642 4.187-1.634 7.252-3.166 10.01-1.838 2.658,1.022 4.393,3.679 6.438,9.093 1.635,5.313 3.575,14.814 4.697,22.987 .92,8.172 1.533,17.571 1.434,25.028-.104,6.845-.514,13.485-1.637,17.98-1.125,4.393-2.246,7.05-4.904,9.093-2.963,1.839-6.945,2.35-12.36,1.942-6.438-10.933-14.714-19.516-25.949-25.747-11.24-6.334-24.827-10.316-40.765-11.952z" fill-rule="evenodd" stroke="#000" stroke-miterlimit="10" stroke-width=".036"/>
 <path d="m178.53,197.756c1.226-2.145 2.656-4.495 4.7-6.642 1.839-2.451 4.086-4.699 6.742-7.151 .817,0 2.555.613 4.802,1.022 2.247.613 5.006,1.021 8.685,2.042-2.146,1.124-4.496,2.351-6.231,4.803-1.84,2.349-3.883,4.802-5.313,8.479-3.576-.715-6.641-1.227-8.786-1.533-2.35-.51-3.882-.714-4.599-1.02z" fill="#ffc080" fill-rule="evenodd" stroke="#000" stroke-miterlimit="10" stroke-width=".036"/>
 <path d="m207.035,169.967c-3.781,2.656-6.743,5.209-9.299,7.252-2.656,1.941-4.801,3.679-6.436,5.211 1.635.101 3.679.409 6.13.918s4.699.818 7.867,1.738c.714-.614 1.328-1.023 2.246-1.635 .716-.715 1.637-1.226 2.759-1.941-.919-2.554-1.635-4.598-2.145-6.54-.715-2.04-.816-3.573-1.122-5.003z" fill="#a16121" fill-rule="evenodd" stroke="#000" stroke-miterlimit="10" stroke-width=".036"/>
 <path d="m213.471,166.29c-1.431.509-2.349,1.225-3.168,1.736s-1.429.918-1.838,1.226c.307,1.328.409,2.757 1.124,4.699 .51,1.736 1.227,3.678 2.145,5.824 1.635-1.022 3.576-2.146 5.007-2.962 1.327-.92 2.555-1.533 4.087-2.248 1.43-.919 3.369-1.738 5.411-2.452-1.734-1.227-3.164-1.839-5.411-2.963-2.249-.818-4.702-2.146-7.357-2.86z" fill="#ffc080" fill-rule="evenodd" stroke="#000" stroke-miterlimit="10" stroke-width=".036"/>
 <path d="m215.923,164.96c1.941-1.736 4.698-2.86 7.865-4.495 3.166-1.736 7.866-3.372 10.932-4.495 2.655-1.43 4.495-1.635 6.332-2.145 1.943-.715 3.065-.818 4.496-1.124-1.94,2.042-3.982,3.575-5.721,5.72-1.837,1.84-3.883,3.78-5.004,5.824-1.229,1.636-2.658,4.393-3.169,5.517-1.022,1.022-1.022.919-1.94.817-1.432-.51-2.962-1.533-4.597-2.248-1.635-.612-3.167-1.328-4.597-1.736-1.634-.408-3.166-1.328-4.597-1.635z" fill="#a16121" fill-rule="evenodd" stroke="#000" stroke-miterlimit="10" stroke-width=".036"/>
 <path d="m247.49,153.11c-2.351,1.94-4.188,3.78-5.925,5.516-1.841,1.636-3.168,3.168-4.393,5.007-1.229,1.736-2.35,3.781-2.963,5.72 1.734-.714 3.267-1.021 4.598-.918 1.225-.103 1.53.204 2.552.918 .715.717 1.636,1.636 2.351,3.168 .612,1.226 1.022,2.656 1.636,4.292 .817-2.248 1.532-4.088 2.552-5.519 .715-1.735 1.635-2.554 2.76-3.575 1.021-1.124 2.248-1.941 3.679-2.862-1.023-3.881-1.738-6.742-2.963-8.581-1.328-1.838-2.352-3.269-3.884-3.166z" fill="#ffc080" fill-rule="evenodd" stroke="#000" stroke-miterlimit="10" stroke-width=".036"/>
 <path d="m254.743,166.493c-1.838,1.43-3.473,3.065-4.903,5.313-1.635,2.145-2.657,4.495-3.883,7.458 .408,1.327.309,2.759.817,4.292 0,1.225.613,2.554.716,3.984 2.248,1.328 4.495,2.554 6.332,3.677s3.271,2.044 4.7,3.167c-.407-4.904-.714-9.296-.92-12.77-.305-3.78-.814-6.334-1.122-8.787-.509-2.451-1.225-4.699-1.737-6.334z" fill="#a16121" fill-rule="evenodd" stroke="#000" stroke-miterlimit="10" stroke-width=".036"/>
 <path d="m258.626,196.12 .41,8.377c-1.331.817-3.168,1.737-4.7,2.757-1.738.818-3.575,1.943-5.519,2.963 .308-4.496.205-8.069.104-11.543-.206-3.472-.408-6.436-1.023-8.887 2.148,1.021 4.293,2.248 6.028,3.269 1.839.919 3.269,1.941 4.7,3.064z" fill="#ffc080" fill-rule="evenodd" stroke="#000" stroke-miterlimit="10" stroke-width=".036"/>
 <path d="m259.237,206.132c-.201,2.552-.201,5.416-.407,8.173-.204,2.452-.611,6.333-.817,8.48-.41,2.043-.611,2.86-1.022,4.393-.612,1.225-1.327,3.065-2.145,4.393l-8.173-8.173c.613-2.145 1.125-4.088 1.532-5.826 .308-1.94.51-3.267.612-4.8 1.532-.817 2.86-1.738 4.803-2.757 1.533-1.023 3.678-2.453 5.617-3.883z" fill="#a16121" fill-rule="evenodd" stroke="#000" stroke-miterlimit="10" stroke-width=".036"/>
 <path d="m245.448,224.623c-.41.714-1.228,1.225-2.453,1.942-1.226.51-3.168.815-5.415,1.328 1.327,1.43 2.247,2.35 3.168,3.883 .817,1.225 1.635,2.553 2.042,3.982 1.532.41 2.859.41 4.802,0 1.736-.408 3.679-1.635 5.823-2.86-2.758-2.452-4.598-4.803-5.925-5.925-1.327-1.636-2.144-2.043-2.042-2.35z" fill="#ffc080" fill-rule="evenodd" stroke="#000" stroke-miterlimit="10" stroke-width=".036"/>
 <path d="m236.048,225.951c2.657-.408 4.597-1.328 6.232-2.351 1.43-1.225 2.042-2.042 2.962-4.8 .715-3.476 1.431-8.071 1.738-12.976 0-5.106-.103-10.317-.715-15.629-1.023-5.313-2.248-12.259-3.682-15.324-1.532-3.167-3.165-3.883-5.309-3.679-2.658-.307-5.724.512-9.606,2.453-4.289,1.532-9.498,4.597-13.994,7.663-4.598,2.757-9.604,6.946-12.26,9.398-2.758,1.94-2.349,3.064-3.473,4.496-1.33,1.43-2.555,3.166-3.679,4.801 4.903,1.533 9.604,2.86 14.098,4.802 4.293,1.529 8.379,3.268 12.26,5.618 3.781,2.35 7.865,5.72 10.726,8.48 2.556,2.552 3.986,4.902 4.702,7.048z" fill="#a16121" fill-rule="evenodd" stroke="#000" stroke-miterlimit="10" stroke-width=".036"/>
 <path d="m207.647,168.638c-.817-1.225-1.532-2.554-2.146-3.576-1.022-1.43-1.839-2.759-2.452-3.167-.92-.509-1.635-.204-1.737.512-.204.204 0,.409 1.022,2.145 1.021,1.635 3.064,6.64 4.495,7.969 1.021.918 1.635-.512 1.838-1.124 .104-.817-.61-1.736-1.02-2.759z" fill-rule="evenodd" stroke="#000" stroke-miterlimit="10" stroke-width=".036"/>
 <path d="m202.642,169.864c-1.022-1.021-2.248-1.736-3.271-2.554-1.532-.92-2.553-2.145-3.474-2.145-1.123-.103-1.429.407-1.327,1.124 0,.306 0,.306 1.634,1.633 1.532,1.329 5.313,5.007 6.948,5.926 1.124.716 1.43-1.328 1.327-1.736-.409-.818-1.02-1.43-1.837-2.248z" fill-rule="evenodd" stroke="#000" stroke-miterlimit="10" stroke-width=".036"/>
 <path d="m253.107,157.094c1.022-.613 1.84-1.327 3.578-1.736 1.43-.817 4.698-1.532 5.823-2.146 1.122-1.124 1.635-1.634.715-1.939-1.532-.206-5.108.407-7.561,1.43-2.452.919-6.027,2.86-6.846,4.188-.92,1.022.612,2.043 1.43,2.248 .717-.001 1.534-1.739 2.861-2.045z" fill-rule="evenodd" stroke="#000" stroke-miterlimit="10" stroke-width=".036"/>
 <path d="m254.438,162.917c.817-.408 1.735-1.328 3.165-1.634 1.533-.715 3.781-1.329 5.11-1.838 1.021-.92 1.225-1.636.613-1.738-1.228-.101-4.496.206-6.641,1.329-2.248.511-5.313,2.656-6.028,3.677-.817.613.407,2.044 1.328,1.941 .613-.306 1.43-1.021 2.453-1.737z" fill-rule="evenodd" stroke="#000" stroke-miterlimit="10" stroke-width=".036"/>
 <path d="m104.87,200.922c-1.328-3.269-5.006-5.925-10.216-9.5-5.619-3.679-14.712-7.969-22.169-10.932-7.561-3.065-16.551-5.313-23.09-6.743-6.844-1.635-12.668-2.35-17.061-2.555-4.495-.612-7.969-1.225-10.012.512-2.452,1.43-3.678,4.904-4.087,10.42-.612,5.824 0,15.121 1.023,23.499 .918,7.968 2.758,17.468 4.699,24.621 1.635,6.845 3.78,12.668 6.027,17.061 2.248,3.985 3.372,6.538 6.947,7.663 3.373,1.02 7.151.612 12.464-1.229 3.474-12.36 9.501-22.27 18.9-31.26 9.194-8.889 21.249-15.939 36.575-21.557z" fill-rule="evenodd" stroke="#000" stroke-miterlimit="10" stroke-width=".036"/>
 <path d="m101.703,200.003c-1.838-1.838-3.882-3.576-6.13-5.209-2.554-1.636-5.313-3.781-8.275-5.313-.715.307-2.554,1.021-4.393,2.145-2.145.817-4.801,2.554-7.969,4.086 2.554.307 4.598,1.329 7.255,3.065 2.145,1.533 4.904,3.984 7.151,6.945 3.269-1.429 6.13-2.755 8.173-3.574 1.94-1.123 3.473-1.838 4.188-2.145z" fill="#ffc080" fill-rule="evenodd" stroke="#000" stroke-miterlimit="10" stroke-width=".036"/>
 <path d="m67.274,179.979c4.188,1.839 7.661,3.474 10.83,4.904 2.962,1.328 5.619,2.453 7.56,3.372-1.635.613-3.679,1.43-5.722,2.452-2.145.816-4.7,2.146-7.254,3.576-.919-.409-1.634-.612-2.554-1.021-1.124-.512-2.043-.92-3.168-1.227 .205-2.86.205-4.801.409-6.946-.101-2.249 0-3.578-.101-5.11z" fill="#a16121" fill-rule="evenodd" stroke="#000" stroke-miterlimit="10" stroke-width=".036"/>
 <path d="m60.224,178.037c1.431.205 2.453.512 3.474.92 .818.306 1.635.409 2.044.715 .103,1.43.103,3.065 0,4.904s-.308,3.882-.614,6.13c-2.042-.716-3.881-1.123-5.517-1.635-1.736-.511-2.86-.92-4.495-1.226-1.838-.51-3.678-.715-5.925-1.021 1.021-1.533 2.656-2.962 4.495-4.292 1.838-1.429 3.882-3.065 6.538-4.495z" fill="#ffc080" fill-rule="evenodd" stroke="#000" stroke-miterlimit="10" stroke-width=".036"/>
 <path d="m57.466,177.322c-2.452-1.021-5.21-1.839-8.684-2.451-3.781-.614-8.479-1.432-11.75-1.636-2.859-.409-5.21-.612-6.64-.612-1.941-.205-3.474-.205-4.598,0 2.351,1.328 4.496,2.757 6.846,4.29 2.042,1.329 4.29,2.759 6.333,4.292 1.533,1.327 3.372,3.677 4.393,4.699 .817.614 1.022.715 2.146.306 .919-.612 2.349-2.655 3.881-3.37 1.329-1.125 2.554-1.941 4.086-2.861 1.228-.919 2.557-1.942 3.987-2.657z" fill="#a16121" fill-rule="evenodd" stroke="#000" stroke-miterlimit="10" stroke-width=".036"/>
 <path d="m23.956,173.542c2.554,1.43 4.904,2.35 7.049,3.883 2.145.919 3.882,2.452 5.619,3.78 1.533,1.532 3.065,2.86 4.189,4.801-2.043-.103-3.474,0-4.699.306-1.432.103-1.533.614-2.248,1.533-.716.715-1.226,2.043-1.533,3.576-.409,1.43-.614,2.657-.614,4.495-1.328-1.941-2.554-3.474-3.677-4.597-1.328-1.124-2.554-2.453-3.678-2.861-1.329-.816-2.86-1.431-4.189-1.839-.203-3.984.204-6.844.818-8.99 .511-2.349 1.634-3.575 2.963-4.087z" fill="#ffc080" fill-rule="evenodd" stroke="#000" stroke-miterlimit="10" stroke-width=".036"/>
 <path d="m20.175,188.254c1.941.92 4.087,2.248 6.028,3.984s3.78,3.679 5.516,6.232c0,1.533.103,2.86.308,4.393 0,1.43.101,2.657.306,4.086-2.146,1.94-3.882,3.37-5.211,5.107-1.634,1.636-2.757,2.757-3.779,4.188-1.124-4.903-1.737-9.093-2.248-12.564-.717-3.78-.92-6.333-1.022-8.787-.203-2.553-.306-4.903.102-6.639z" fill="#a16121" fill-rule="evenodd" stroke="#000" stroke-miterlimit="10" stroke-width=".036"/>
 <path d="m23.649,217.88 1.634,8.276c1.737.41 3.371.919 5.313,1.532 1.839.408 3.985.92 6.027,1.533-1.328-4.188-2.145-7.765-2.86-11.135-.817-3.678-1.227-6.13-1.227-8.887-1.941,1.632-3.78,3.064-5.107,4.697-1.635,1.429-2.758,2.759-3.78,3.984z" fill="#ffc080" fill-rule="evenodd" stroke="#000" stroke-miterlimit="10" stroke-width=".036"/>
 <path d="m25.488,227.893c.613,2.553 1.533,5.005 2.35,7.762 .919,2.556 1.736,5.723 2.86,7.971 .817,1.939 1.021,2.655 2.145,4.085 .715,1.331 2.043,2.453 3.167,3.78l5.823-9.908c-1.021-1.84-2.248-3.883-2.86-5.313-.817-1.84-1.43-3.065-1.838-4.495-1.635-.411-3.372-.92-5.21-1.533-2.044-.816-4.189-1.329-6.437-2.349z" fill="#a16121" fill-rule="evenodd" stroke="#000" stroke-miterlimit="10" stroke-width=".036"/>
 <path d="m43.367,242.398c.306.513 1.533.92 2.862,1.228 1.327.103 3.166.103 5.516,0-1.021,1.635-1.43,2.758-2.044,4.495-.714,1.226-.816,3.065-1.123,4.393-1.328.818-2.86,1.225-4.597,1.225-2.044-.201-3.78-.509-6.334-1.327 2.043-3.369 3.372-5.518 4.393-7.253 1.02-1.737 1.327-2.658 1.327-2.761z" fill="#ffc080" fill-rule="evenodd" stroke="#000" stroke-miterlimit="10" stroke-width=".036"/>
 <path d="m52.869,241.378c-2.554.205-4.904.103-6.64-.715-1.738-.919-2.963-1.43-4.086-3.882-1.533-3.065-3.679-7.663-4.803-12.261-1.43-5.005-2.757-10.113-3.166-15.322-.818-5.517-.715-12.26-.103-15.836 .613-3.473 1.635-4.29 4.189-4.801 2.35-.817 5.516-.817 9.909,0 4.189.511 10.422,2.248 15.529,4.086 5.21,1.533 10.42,4.495 14.1,6.13 2.962,1.226 2.757,2.248 4.495,3.474 1.533,1.226 2.962,2.349 4.699,3.778-4.699,2.553-8.479,5.416-12.464,8.173s-7.355,4.903-10.522,8.378c-3.269,3.371-6.538,7.355-8.276,10.828-1.738,3.066-3.066,5.723-2.861,7.97z" fill="#a16121" fill-rule="evenodd" stroke="#000" stroke-miterlimit="10" stroke-width=".036"/>
 <path d="m75.855,183.35c.51-1.021 1.124-2.554 2.248-3.473 .612-1.431 1.838-2.758 2.554-3.167 .306-.614 1.635,0 1.635.613 .204.205-.409.409-1.022,2.145-1.021,1.636-3.78,6.335-4.699,7.766-1.124,1.021-1.839-.715-1.736-1.227-.309-.919.305-1.533 1.02-2.657z" fill-rule="evenodd" stroke="#000" stroke-miterlimit="10" stroke-width=".036"/>
 <path d="m80.862,184.679c.612-.92 2.145-1.738 3.37-2.452 1.125-1.021 2.555-1.839 3.474-2.043 .817-.103 1.124.407 1.329,1.124-.205.306-.409.306-1.738,1.633-1.839,1.227-5.516,4.701-7.049,5.722-1.431.409-1.736-1.226-1.328-1.736 .001-.818.92-1.432 1.942-2.248z" fill-rule="evenodd" stroke="#000" stroke-miterlimit="10" stroke-width=".036"/>
 <path d="m20.891,206.54c-1.021.205-1.941.92-2.759,1.738-1.328.612-2.86,2.553-3.78,3.064-1.122.408-2.246.306-1.736-.307 .102-1.02 2.554-3.473 4.188-4.598 1.533-1.43 4.495-2.756 5.722-2.858 .817-.204 1.124,1.226.918,1.941-.715.305-1.429.509-2.553,1.02z" fill-rule="evenodd" stroke="#000" stroke-miterlimit="10" stroke-width=".036"/>
 <path d="m24.16,209.912c-1.021.305-1.43.817-2.349,1.533-1.329.407-2.453,2.35-3.371,2.655-1.124.307-1.737.205-1.43-.305 .204-1.125 2.043-2.863 3.575-3.985 1.532-1.533 3.78-2.248 5.108-2.556 .714-.102 1.124,1.125.817,1.738-.51.407-1.43.206-2.35.92z" fill-rule="evenodd" stroke="#000" stroke-miterlimit="10" stroke-width=".036"/>
 <path d="m32.64,246.996c-1.022.715-2.248,1.533-3.269,2.452-1.533.613-2.555,1.841-3.474,2.146-1.021,0-1.635-.92-1.43-1.225-.103-.715.204-.308 1.736-1.533 1.43-1.532 5.516-4.905 7.151-5.723 .92-.715 1.328.921 1.227,1.738-.205.613-1.226,1.328-1.941,2.145z" fill-rule="evenodd" stroke="#000" stroke-miterlimit="10" stroke-width=".036"/>
 <path d="m136.439,192.646c-6.335.92-10.728,1.432-15.53,1.941-4.903.103-8.377-.409-13.587,0-5.926.103-12.668-.306-19.411,1.941-6.743,2.145-14.712,7.05-19.616,11.136-4.904,3.677-7.356,6.13-10.522,11.748-3.576,5.72-7.355,13.28-10.217,21.556-3.268,7.97-6.437,16.348-8.377,25.541-2.451,8.686-3.882,17.471-3.882,26.769-.102,8.99 1.124,18.285 4.496,27.074 3.268,8.58 6.64,16.854 15.63,23.701 8.582,6.232 24.417,11.544 36.881,14.713 12.158,2.859 22.987,3.267 37.597,3.575 14.711.102 33.816,0 49.855-2.658 15.733-3.165 32.999-8.07 44.748-14.711 11.544-6.846 18.184-16.653 24.313-25.541 5.723-9.298 8.991-19.003 11.443-29.116 2.248-10.32 4.903-20.741 3.575-31.264-1.431-10.726-5.518-22.168-11.442-31.569-6.334-9.5-14.507-17.98-24.926-24.313-10.523-6.844-26.155-11.441-37.495-13.791-11.647-2.554-23.191-.715-31.875,0-9.092.306-15.529,2.452-21.658,3.268z" fill-rule="evenodd" stroke="#000" stroke-miterlimit="10" stroke-width=".036"/>
 <path d="m62.268,216.552c-.817.51-1.329,1.636-1.941,2.553-.613,1.125-1.328,2.045-1.736,3.578 1.021,2.247 2.86,4.598 5.517,7.458 2.554,2.655 8.173,6.743 9.808,9.093 1.328,2.042-.511,2.86-2.35,4.085-2.554.921-5.925,1.942-10.114,3.065-4.189.817-8.99,1.84-14.813,2.658-.308.51-.717,1.632-1.227,2.962s-1.226,3.268-1.737,5.412c1.941,1.738 4.394,3.781 6.948,5.313 2.35,1.43 5.21,3.167 8.173,4.396 2.861,1.02 7.458,1.94 8.684,3.165 1.021,1.125.205,2.35-2.86,4.802-3.474,2.655-12.157,6.743-16.55,9.911-4.7,2.758-7.866,5.21-10.319,6.945-.306.308-.306,1.228-.409,1.942s0,1.636.307,2.758c3.372,1.84 7.152,2.86 11.34,3.882 3.883.511 9.195.921 13.179,1.226 3.883.103 9.093.308 10.523,1.433 .92.918-2.043,3.473-3.372,5.721-1.225,2.042-2.758,3.575-5.414,8.172-3.168,4.599-7.357,10.831-12.976,19.107 .511.714 1.123,1.531 1.838,2.449 .715.716 1.329,1.533 2.248,2.452 5.415-.919 10.42-1.838 15.426-3.574 4.904-1.738 10.319-4.804 13.895-6.438 3.167-1.734 4.801-4.698 6.539-4.187 1.533,0 1.736,1.635 3.372,5.312 1.43,3.473 3.474,10.931 5.313,15.63 1.634,4.394 3.065,7.766 4.7,10.523 1.021.411 2.452.715 4.292.921 1.735.204 3.575.305 5.925.305 2.759-2.45 5.107-4.902 7.458-8.478 2.248-3.575 4.087-9.808 5.925-12.056 1.33-2.453 2.045-2.76 3.68-2.146 1.021.305 2.451,1.735 5.107,4.29 2.759,2.35 7.969,6.743 12.056,10.013 4.085,3.165 7.56,5.516 11.646,8.173 1.124.103 2.758-.308 5.313-.409 2.451-.306 5.414-.716 9.296-1.226 1.123-3.984 1.838-7.765 2.553-11.747 .307-4.19.409-9.504 1.124-12.056 .511-2.76 1.022-3.373 3.167-3.373 1.839-.103 3.882,1.327 8.888,3.065 4.599,1.635 15.121,4.188 20.535,6.13 5.313,1.635 8.99,2.453 11.442,3.268 .307-.202.409-.407 1.431-1.021 .918-.612 1.634-1.327 3.269-2.145-1.228-3.476-2.86-7.256-4.495-12.466-1.736-5.211-5.312-13.893-6.028-17.775-.918-3.985-1.021-5.416.104-5.925 .817-1.023 2.759.305 5.824,1.225s7.353,2.76 12.055,4.393c4.288,1.33 9.499,2.556 14.813,3.677 1.125-1.632 2.042-3.369 2.758-5.209 .714-2.043 1.021-4.188 1.329-6.436-5.11-4.088-9.808-8.07-14.101-11.953-4.799-4.088-10.522-9.298-12.055-11.748-1.329-2.965.817-2.862 3.68-3.578 2.45-.612 7.253.205 11.237.104 3.575-.104 7.458-1.431 10.828-1.636 3.168-.407 5.823-1.328 8.379-1.632 .714-2.658.611-5.11.51-7.766-.306-2.658-1.021-5.519-2.146-8.173-5.822-.92-10.112-1.533-13.995-2.658-3.985-1.02-7.354-2.247-8.479-3.678-1.226-1.939.103-3.678 2.042-7.56 1.841-4.085 4.396-9.195 8.481-15.733-.613-1.225-1.123-1.837-1.533-2.654-.511-.92-1.225-1.228-1.738-1.738-.917,1.738-3.78,3.167-8.58,3.883-5.107.509-16.346,1.328-20.329.92-4.189-.818-3.679-1.533-3.576-4.087-.204-2.758 2.043-7.15 2.861-10.831 .715-3.88 1.43-7.149 1.736-10.929-.613-.512-.919-.92-1.736-1.227-.615-.509-1.737-.918-2.554-1.225-5.415,2.657-10.319,5.21-14.712,7.66-4.804,2.453-8.685,5.21-12.056,6.743-3.372,1.022-5.62,1.43-7.152,0-1.735-1.837-1.328-6.332-2.35-9.908-1.124-3.474-3.065-7.765-5.006-11.749l-4.495.612c-2.043,2.35-3.985,4.904-5.823,7.663-2.045,2.555-3.983,5.414-5.415,8.172-1.839,2.655-2.758,6.538-3.984,8.07-1.33,1.228-2.35,1.022-3.882-.612-1.737-2.145-3.985-8.58-5.926-11.44-2.145-3.167-4.903-6.131-6.334-6.54-1.635-.509-1.635-.409-2.759,2.657-1.633,2.554-3.881,10.318-5.516,13.791-1.737,3.065-3.27,5.518-4.598,6.13-1.533.308-1.634-1.125-3.473-3.473-2.147-2.76-5.824-8.275-8.684-11.441-3.065-3.271-6.028-5.313-8.889-6.948-2.248-.204-5.005-.204-7.458.409-2.554.409-5.619,1.226-8.378,2.453 .103,3.371.715,6.842 1.432,10.417 .51,3.475 3.371,8.073 3.063,10.625-.51,2.145-2.145,3.271-4.902,2.962-2.964-.612-9.298-3.678-12.261-4.8-3.166-1.33-5.107-1.43-6.64-1.84-1.742-.407-3.273-.715-4.193-.51z" fill="#ffc080" fill-rule="evenodd"/>
 <path d="m113.758,237.088c-.307-1.33 1.124-3.578 1.941-5.111 .613-1.734 1.43-2.859 2.859-4.187 1.228-1.738 4.292-3.473 5.62-3.986 1.43-.612 2.248.715 2.043,1.636-.613,1.022-4.086,1.84-5.313,3.575-1.429,1.431-2.452,3.476-3.064,5.313-.613,1.532-.919,4.189-1.33,4.803-.814.305-2.654-.92-2.756-2.043z" fill-rule="evenodd" stroke="#000" stroke-miterlimit="10" stroke-width=".036"/>
 <path d="m166.679,228.095c-.511-1.632-2.759-3.063-3.984-4.291-1.533-1.327-2.759-2.144-4.496-2.859-2.043-1.023-5.618-1.636-6.742-1.431-1.533,0-2.043,1.738-1.125,2.453 .817.305 4.395.305 6.437,1.225 1.941.818 3.474,2.556 5.007,4.088 1.327,1.02 2.452,4.084 3.371,4.084 .715-.204 1.736-1.938 1.532-3.269z" fill-rule="evenodd" stroke="#000" stroke-miterlimit="10" stroke-width=".036"/>
 <path d="m111.817,243.014c.205.917 1.33,1.43 2.452,1.226 1.124-.309 1.839-1.226 1.635-2.146-.204-1.023-1.227-1.533-2.452-1.328-1.124.305-1.838,1.225-1.635,2.248z" fill-rule="evenodd" stroke="#000" stroke-miterlimit="10" stroke-width=".036"/>
 <path d="m164.535,235.043c.203.92 1.225,1.431 2.451,1.228 1.124-.308 1.839-1.228 1.635-2.147-.205-1.021-1.329-1.53-2.453-1.328-1.124.307-1.839,1.227-1.633,2.247z" fill-rule="evenodd" stroke="#000" stroke-miterlimit="10" stroke-width=".036"/>
 <path d="m136.643,238.619c-1.021.513-3.268.919-4.801,1.227-1.636.306-3.065.205-4.702.103-2.042-.513-4.903-1.635-5.821-2.145-.921-.715-1.023-2.556.102-2.35 1.021-.103 3.269,1.635 5.516,2.042 1.736.103 3.575-.205 5.517-.511 1.532-.714 3.372-1.737 4.291-1.532 .51.103.613,2.351-.102,3.166z" fill-rule="evenodd" stroke="#000" stroke-miterlimit="10" stroke-width=".036"/>
 <path d="m159.222,235.861c-1.022.51-3.269.92-4.801,1.228-1.636.305-3.065.203-4.7.1-2.043-.51-4.904-1.632-5.823-2.145-.921-.714-1.023-2.552.101-2.35 1.023-.1 3.27,1.636 5.518,2.045 1.737.1 3.575-.205 5.516-.513 1.533-.715 3.372-1.735 4.292-1.533 .509.103.612,2.35-.103,3.168z" fill-rule="evenodd" stroke="#000" stroke-miterlimit="10" stroke-width=".036"/>
 <path d="m61.041,217.88c-.306-1.43-.715-3.473-.817-4.902-.306-1.738-.816-4.19-.407-5.008 .306-.918 1.225-1.328 1.939-.817 .103.205.512.205.818,2.76 .409,2.145 2.145,8.888 2.452,10.828-.307,1.635-1.941,1.022-2.555.513-.715-.616-1.327-2.149-1.43-3.374z" fill-rule="evenodd" stroke="#000" stroke-miterlimit="10" stroke-width=".036"/>
 <path d="m57.16,221.455c-.817-1.122-1.329-3.472-1.941-4.698-.818-1.738-1.43-3.68-1.43-4.7-.103-1.227 1.124-1.533 1.736-1.328 .307-.102.409.612 1.431,2.553 .92,2.35 4.188,7.663 4.7,10.013 .307,1.837-1.838,1.123-2.453,1.022-.716-.409-1.534-1.634-2.043-2.862z" fill-rule="evenodd" stroke="#000" stroke-miterlimit="10" stroke-width=".036"/>
 <path d="m84.232,200.207c-1.838.614-4.086,1.839-6.333,3.271-2.657,1.123-5.517,3.575-7.764,5.413-2.248,1.738-4.29,3.78-5.722,5.72 2.861.715 5.518,1.635 8.786,2.76 3.269,1.02 6.846,2.758 9.604,3.575 2.043.715 3.576.715 4.597.407 .818-.202 1.124-1.225.92-2.655-.511-2.145-1.941-6.028-2.656-8.48-.92-2.655-1.432-5.31-1.533-6.74-.206-1.636-.306-2.863.101-3.271z" fill="#a16121" fill-rule="evenodd" stroke="#000" stroke-miterlimit="10" stroke-width=".036"/>
 <path d="m57.364,223.6c1.226,2.248 2.35,4.293 3.78,6.13 1.227,1.738 2.656,2.555 4.29,4.088 1.432,1.225 3.883,2.655 5.006,3.882 .92,1.123 1.533,2.043 1.021,3.165-1.122.616-2.758,1.331-4.903,2.148-2.35.817-4.291,1.122-7.458,2.043-3.372.612-7.05,1.327-11.851,2.145 1.43-4.393 3.167-8.683 4.801-12.463 1.739-4.087 3.372-7.663 5.314-11.138z" fill="#a16121" fill-rule="evenodd" stroke="#000" stroke-miterlimit="10" stroke-width=".036"/>
 <path d="m43.265,259.359c1.226,1.225 2.554,2.351 4.393,3.78 1.736,1.225 3.575,2.553 5.925,3.985 2.145,1.225 4.496,2.042 6.641,2.859 1.941.511 3.372.511 4.292,1.123 .612.102.612.612-.818,1.942-2.145,1.225-6.742,4.188-9.808,6.127-2.962,1.533-4.904,2.453-7.458,4.294-2.759,1.837-5.619,3.472-8.582,6.027-.409-3.678-.306-7.355.715-12.568 .92-5.106 2.35-10.826 4.7-17.569z" fill="#a16121" fill-rule="evenodd" stroke="#000" stroke-miterlimit="10" stroke-width=".036"/>
 <path d="m37.441,298.793c1.43.513 2.963,1.636 5.722,2.248 2.247.513 6.13,1.635 9.297,2.147 2.861.306 5.925,0 8.786.306 2.86,0 6.64-.205 8.173.51 1.021.308.612.615-.409,2.452-1.227,1.943-3.984,5.107-5.925,8.275-2.146,2.556-3.678,5.313-5.721,8.687-2.35,3.164-4.904,7.251-7.664,11.439-2.042-2.758-3.881-5.925-5.516-9.5s-3.983-7.561-4.699-11.953c-1.329-4.597-1.737-9.196-2.044-14.611z" fill="#a16121" fill-rule="evenodd" stroke="#000" stroke-miterlimit="10" stroke-width=".036"/>
 <path d="m57.261,342.725c1.941-.204 4.394-.611 7.356-1.225 2.554-.718 6.743-1.841 9.809-2.966 2.859-1.429 5.72-2.962 8.173-4.187 2.247-1.532 3.983-2.655 5.619-3.37 .918-.817 1.839-1.533 2.35-1.33 .408,0 1.124-.305 1.736,1.43 .715,1.532 1.329,5.518 2.248,8.378 .511,2.452 1.635,5.21 2.248,7.458 .613,1.738.613,3.677 1.635,5.415 .816,1.738 1.736,3.78 3.167,5.721-5.619-1.123-10.727-1.94-15.324-3.269-4.802-1.327-8.173-2.35-12.874-4.19-4.802-2.246-10.319-4.494-16.143-7.865z" fill="#a16121" fill-rule="evenodd" stroke="#000" stroke-miterlimit="10" stroke-width=".036"/>
 <path d="m117.436,359.888c1.33-1.225 3.27-3.27 4.701-5.312 1.327-2.248 3.269-5.721 4.595-8.07 1.124-2.964 1.738-5.518 2.964-6.847 .715-1.225 1.634-1.021 3.167.206 1.533.817 3.576,4.393 6.13,6.435 2.349,1.841 5.005,3.883 7.56,5.723 2.146,1.329 4.087,2.964 5.823,4.086 1.533,1.022 2.862,2.351 3.985,3.168-2.452.305-5.62.102-9.501.51-4.189.308-9.298.102-14.099.513-5.006.098-10.115-.309-15.325-.412z" fill="#a16121" fill-rule="evenodd" stroke="#000" stroke-miterlimit="10" stroke-width=".036"/>
 <path d="m177.714,357.436c.816-3.267 1.94-6.742 2.247-10.421 0-3.984-.306-10.013.307-12.157 .613-2.248 1.533-1.94 3.984-1.431 2.248.41 5.211,1.637 9.298,3.271 3.882,1.021 9.91,2.655 14.508,4.084 4.393,1.125 8.274,2.453 12.056,3.579-4.189,2.246-8.48,4.29-12.873,6.129-4.699,1.532-9.094,3.37-13.997,4.394-4.906.917-10.218,2.144-15.53,2.552z" fill="#a16121" fill-rule="evenodd" stroke="#000" stroke-miterlimit="10" stroke-width=".036"/>
 <path d="m248.513,314.834c-1.33-.308-3.064-.308-5.621-1.122-2.653-.92-6.537-2.045-9.705-2.966-3.372-1.225-7.766-2.757-10.01-3.369-2.556-1.328-3.577-1.841-4.188-1.94-.817-.205-.921.202-.308,2.449 .614,2.146 1.738,6.233 3.373,10.32 1.021,3.575 2.96,9.398 4.288,12.771 1.126,3.37 2.247,5.925 2.962,7.66 2.861-2.655 5.52-5.211 7.972-7.66 2.247-2.658 4.494-4.7 6.332-7.256 1.84-2.757 3.472-5.719 4.905-8.887z" fill="#a16121" fill-rule="evenodd" stroke="#000" stroke-miterlimit="10" stroke-width=".036"/>
 <path d="m261.284,273.05c-1.943.612-4.396.715-7.358,1.43-3.37.203-8.07,1.021-11.342,1.328-3.574.308-6.64-.308-8.784.103-2.248-.205-3.473-.205-3.679.407-.407.612.308,1.228 2.146,3.373 1.636,1.838 5.108,4.495 8.889,7.968 3.883,3.373 8.173,6.845 13.69,11.546 1.84-5.211 3.167-9.503 4.392-13.999 .92-4.596 1.738-8.276 2.046-12.156z" fill="#a16121" fill-rule="evenodd" stroke="#000" stroke-miterlimit="10" stroke-width=".036"/>
 <path d="m249.738,226.463c-1.94,2.655-3.271,5.925-4.804,8.683-1.531,2.86-3.369,6.537-3.982,8.685-1.125,1.838-1.942,2.963-1.228,3.777 .514.513 2.248,1.126 4.803,1.84 2.247.716 7.051,1.636 9.705,2.351 2.556.612 4.29.408 5.618.51-1.122-5.005-2.449-9.603-3.982-13.791-1.84-4.394-3.883-8.275-6.13-12.055z" fill="#a16121" fill-rule="evenodd" stroke="#000" stroke-miterlimit="10" stroke-width=".036"/>
 <path d="m219.396,200.82c-.511,2.657-1.226,5.414-1.738,8.274-.918,2.757-1.633,5.515-2.145,7.865-.817,1.942-1.532,3.882-1.021,5.008 .204,1.225 1.021,1.632 3.679,2.043 2.45-.103 8.171-.308 11.644-.613 2.862-.308 5.213-.308 7.461-.818 2.144-.715 4.188-1.942 6.128-3.271-3.165-3.677-6.744-6.845-10.727-9.91-4.191-3.369-8.481-5.819-13.281-8.578z" fill="#a16121" fill-rule="evenodd" stroke="#000" stroke-miterlimit="10" stroke-width=".036"/>
 <path d="m173.626,189.889c1.329,1.634 2.248,3.065 3.167,5.108 .715,1.635.817,3.78 1.533,6.028 .409,2.247.613,5.617 1.431,7.354 .409,1.636 1.226,2.248 2.861,2.248 1.634-.308 3.779-1.738 6.845-3.168 2.86-1.635 6.948-4.493 10.727-6.231 3.372-1.939 6.947-3.472 10.319-4.596-7.562-2.554-13.792-3.883-18.696-5.109-5.007-.816-8.172-1.532-11.032-1.327-3.171-.307-5.417-.409-7.155-.307z" fill="#a16121" fill-rule="evenodd" stroke="#000" stroke-miterlimit="10" stroke-width=".036"/>
 <path d="m164.535,191.013c-1.023-.307-3.271,0-7.97.51s-11.034,1.635-19.411,2.963c2.555,2.146 4.394,4.088 5.926,6.233 1.123,1.736 1.635,3.676 2.758,5.821 .919,1.84 2.146,5.925 3.27,6.743 .715.513 1.124-.305 2.451-2.452 1.124-2.451 3.68-8.17 5.313-10.827 1.328-2.554 2.452-3.474 3.78-4.7 1.429-1.533 2.35-2.964 3.883-4.291z" fill="#a16121" fill-rule="evenodd" stroke="#000" stroke-miterlimit="10" stroke-width=".036"/>
 <path d="m105.278,196.632c1.432-.103 3.271-.103 5.518,0 1.839-.103 4.598.101 7.05.204 2.451-.51 4.801-.409 7.458-.817 2.553-.51 5.007-.407 7.764-.816-1.43,2.145-2.655,5.209-4.087,8.07-1.533,3.062-3.371,7.252-4.29,9.805-.919,2.045-1.635,3.065-2.146,3.065-.919-.305-1.531-1.43-2.963-3.37-1.736-2.555-4.699-6.538-6.947-9.194-2.554-2.657-5.007-5.109-7.357-6.947z" fill="#a16121" fill-rule="evenodd" stroke="#000" stroke-miterlimit="10" stroke-width=".036"/>
 <path d="m38.156,271.313c-1.533-1.022-3.983-2.146-5.414-3.373-2.146-1.532-4.188-2.963-5.006-3.88-.614-1.228 0-2.045 1.021-2.045 .409-.305.614.103 3.371,1.635 2.453,1.43 10.217,5.416 12.261,7.256 1.531,1.43-1.124,2.042-2.043,2.244-1.124-.1-2.657-1.123-4.19-1.837z" fill-rule="evenodd" stroke="#000" stroke-miterlimit="10" stroke-width=".036"/>
 <path d="m39.893,265.284c-1.123-.715-2.757-1.635-3.778-2.35-1.533-.817-2.964-2.248-3.474-2.655-.307-.715-.205-1.737.715-1.533 .409-.307.409.104 2.35,1.226 1.839.817 7.05,3.78 8.583,5.005 .817.92-.715,1.431-1.431,1.533-1.024,0-1.739-.917-2.965-1.226z" fill-rule="evenodd" stroke="#000" stroke-miterlimit="10" stroke-width=".036"/>
 <path d="m86.173,356.108c-1.43,1.126-3.064,3.168-4.495,4.599-1.633,1.225-3.881,3.471-4.802,3.984-1.124.202-2.247-.817-1.838-1.431-.204-.817.306-.718 2.35-2.862 1.941-2.35 7.661-9.397 9.706-10.522 1.635-1.431 1.838,1.228 1.736,2.452-.51,1.024-1.533,2.145-2.657,3.78z" fill-rule="evenodd" stroke="#000" stroke-miterlimit="10" stroke-width=".036"/>
 <path d="m80.657,353.043c-1.124.92-2.043,2.145-3.168,3.271-1.225,1.122-2.758,2.042-3.372,2.757-.919.104-1.328-.611-1.225-1.021-.103-.511.306-.613 1.633-1.94 1.432-1.738 5.007-6.538 6.743-7.355 .92-1.022 1.329.716 1.226,1.635-.202.815-1.326,1.428-1.837,2.653z" fill-rule="evenodd" stroke="#000" stroke-miterlimit="10" stroke-width=".036"/>
 <path d="m164.329,356.005c.409,1.126 1.023,3.169 1.43,4.906 .308,1.431.92,3.982 1.022,4.903-.511.817-1.226.919-1.737.715-.307-.511-.816-.511-1.124-2.759-1.124-2.246-3.372-9.092-3.575-10.728-.306-1.838 1.533-1.021 2.35-.305 .614.409 1.022,1.633 1.634,3.268z" fill-rule="evenodd" stroke="#000" stroke-miterlimit="10" stroke-width=".036"/>
 <path d="m158.506,356.519c.307,1.02.409,3.063.715,4.494-.103,1.329.409,3.269.306,4.291-.409.612-1.328.92-1.635.511-.613-.408-.306-.716-.613-2.554-.817-2.248-1.839-8.274-1.941-9.808 0-1.942 1.33-.513 2.043,0 .308.51.819,1.533 1.125,3.066z" fill-rule="evenodd" stroke="#000" stroke-miterlimit="10" stroke-width=".036"/>
 <path d="m239.827,329.034c.921.51 2.043,1.126 3.373,2.248 1.327,1.125 3.267,2.962 4.697,3.883 .92.407 2.556.407 2.148-.407-.718-1.228-2.966-4.19-5.111-5.724-2.45-1.635-5.617-3.677-7.15-3.78-1.43-.51-1.84,1.738-1.227,2.454 .308.407 1.943.714 3.27,1.326z" fill-rule="evenodd" stroke="#000" stroke-miterlimit="10" stroke-width=".036"/>
 <path d="m235.537,333.123c.612.304 1.738,1.121 2.963,2.042 1.022.716 3.065,2.758 4.188,3.369 1.022.411 2.045.308 1.84-.304-.612-1.023-2.758-3.78-4.495-5.107-1.84-1.738-5.107-2.963-6.232-3.271-1.328-.309-1.533,1.328-1.023,2.146 .204.611 1.633.204 2.759,1.125z" fill-rule="evenodd" stroke="#000" stroke-miterlimit="10" stroke-width=".036"/>
 <path d="m255.561,236.576c1.023-.612 3.476-1.02 5.008-1.225 1.43-.41 3.982-1.022 4.902-.715 .715.202.921.92.612,1.735-.509.103-.509.308-2.757,1.022-2.758.613-8.889,2.658-10.933,2.963-2.044-.205-.613-1.635-.1-2.35 .408-.818 1.633-1.021 3.268-1.43z" fill-rule="evenodd" stroke="#000" stroke-miterlimit="10" stroke-width=".036"/>
 <path d="m255.765,242.398c1.123-.202 2.758-.51 4.496-.51 1.225-.407 3.473-.407 4.393,0 .511.308.612.817.308,1.533-.41.409-.716-.206-2.556.509-2.247.309-8.275,1.33-9.808,1.434-1.533-.104-.716-1.841.104-2.046 .509-.509 1.53-.817 3.063-.92z" fill-rule="evenodd" stroke="#000" stroke-miterlimit="10" stroke-width=".036"/>
 <path d="m98.229,281.425c-5.925-1.02-19.717-1.327-30.343-2.552-10.931-1.431-24.621-5.006-33.204-6.028-8.377-1.532-13.792-2.248-16.652-2.145-3.168-.309-3.168,1.43-2.351,2.042 .204.205 1.227.51 5.416,1.327 4.393.921 11.238,1.636 19.717,3.271 8.173,1.328 19.513,3.678 28.503,5.107 8.275,1.125 17.266,1.431 22.579,2.043 5.108.308 8.378.513 9.399.205 1.022-.715 2.351-2.349-3.064-3.27z" fill-rule="evenodd" stroke="#000" stroke-miterlimit="10" stroke-width=".036"/>
 <path d="m22.117,303.699c6.437-.817 13.281-2.043 21.659-3.271 8.173-1.533 19.003-4.393 27.38-5.823 8.378-1.84 16.347-3.574 21.557-4.087 4.699-.918 6.231-.613 7.355-.203 .92.407 2.35,1.43-1.634,2.655-4.7,1.022-16.142,2.452-24.52,4.29-8.48,1.635-16.959,3.883-25.847,5.621-9.297,1.326-19.82,2.962-27.278,3.779-7.458.716-13.281,1.738-16.652,1.838-3.576-.203-4.292-1.327-4.086-1.735 .101-.612.715-.92 4.597-1.327 3.778-.512 10.521-1.228 17.469-1.737z" fill-rule="evenodd" stroke="#000" stroke-miterlimit="10" stroke-width=".036"/>
 <path d="m26.816,337.31c6.13-3.27 19.31-10.113 27.688-14.2 7.867-4.188 13.28-6.743 20.228-10.013 6.743-3.575 16.04-8.378 20.432-10.01 4.189-1.533 5.416-.818 4.803.509-.716.612-3.576,2.248-9.399,5.313-6.642,3.064-18.186,8.172-27.482,12.976-9.195,4.494-17.98,9.296-26.358,13.996-8.787,4.392-18.493,10.115-24.009,12.771-5.619,1.839-7.254,2.246-8.071,1.635-.919-.41.715-2.454 3.27-3.78 2.248-1.943 7.355-3.575 10.625-5.313 2.859-1.535 2.348-1.127 8.273-3.884z" fill-rule="evenodd" stroke="#000" stroke-miterlimit="10" stroke-width=".036"/>
 <path d="m197.839,269.167c5.313-2.042 18.901-4.905 29.32-8.173 10.116-3.883 22.169-8.378 31.467-12.26 9.194-3.883 18.594-8.684 23.088-10.014 4.19-1.225 2.963.616 2.658,1.635-.513.41-.103,0-5.107,2.35-5.621,2.146-16.859,7.867-25.85,11.648-9.093,3.678-19.004,7.15-26.971,10.42-8.273,2.758-16.855,4.697-21.76,6.23-5.313,1.228-8.378,2.145-9.195,1.942-1.225-.408-3.065-1.94 2.35-3.778z" fill-rule="evenodd" stroke="#000" stroke-miterlimit="10" stroke-width=".036"/>
 <path d="m270.374,277.135c-6.844.513-13.586.921-21.861,1.228-8.582.202-19.616-.512-27.992-.205-8.583-.205-16.96.205-21.967.407-4.902.104-6.537.817-7.253,1.331-.817.51-2.555,1.633 2.248,2.145 4.496.306 16.04-1.022 24.825-.817 8.58,0 17.267.103 26.458.306 9.094-.408 19.821-1.431 27.484-1.838 7.457-.613 12.873-1.126 16.653-1.533 3.267-1.022 3.575-1.84 3.677-2.452-.102-.613-1.429-.613-4.802-.407-4.085.405-10.827,1.017-17.47,1.835z" fill-rule="evenodd" stroke="#000" stroke-miterlimit="10" stroke-width=".036"/>
 <path d="m264.245,302.269c-6.54-2.045-21.661-5.822-30.035-8.173-8.891-2.247-16.448-4.395-21.863-5.62-5.517-1.43-8.479-2.86-10.829-2.758-2.964-.205-5.414.306-4.599,1.532 .614.921 5.621,1.636 10.32,3.269 4.393,1.021 10.625,2.147 18.285,4.19 7.868,2.042 19.41,5.313 28.708,8.274 9.094,2.453 20.023,6.131 26.051,7.458 5.313,1.122 7.562.205 8.276,0 .612-.715-1.635-1.84-3.982-2.963-2.657-1.228-8.177-2.247-11.443-3.065-3.677-1.124-2.452-.409-8.889-2.144z" fill-rule="evenodd" stroke="#000" stroke-miterlimit="10" stroke-width=".036"/>
 <path d="m145.94,196.835c.817-1.124 1.737-2.757 3.883-4.495 1.839-1.839 6.333-4.801 7.968-6.13 1.328-1.531 1.839-2.655 1.941-2.962 0-.715-.817-1.021-1.635-.51-1.226.51-2.553,1.533-3.985,3.065-1.531,1.225-2.86,2.248-4.393,3.882-1.636,1.329-3.985,2.758-4.699,4.291-.818,1.227-1.533,2.248-1.023,3.065 .002.51.921.306 1.943-.206z" fill-rule="evenodd" stroke="#000" stroke-miterlimit="10" stroke-width=".036"/>
 <path d="m142.365,195.508c.203-.817.918-2.861 2.144-4.495 1.329-2.35 4.189-5.006 5.416-6.743 1.021-1.738.816-2.555.918-2.862-.203-.51-.818-.918-1.429-.101-.817.51-1.839,1.94-2.657,3.473-.817,1.124-2.146,2.453-2.86,3.985-1.124,1.43-2.453,2.963-2.862,4.596-.612,1.022-.715,2.35-.307,2.759 .001.307.922.103 1.637-.612z" fill-rule="evenodd" stroke="#000" stroke-miterlimit="10" stroke-width=".036"/>
 <path d="m125.303,199.083c-.919-.918-1.532-3.065-2.656-4.495-1.225-1.43-2.146-2.758-3.575-3.575-1.533-.92-4.087-1.737-4.904-2.044-1.124-.715-1.021-1.226-.817-1.532 0-.307.511-1.227 1.533-.818 .817,0 2.553,0 4.392,1.533 1.533,1.227 4.189,3.78 5.62,5.722 1.226,1.43 1.941,3.167 2.146,4.086-.207.919-.922,1.429-1.739,1.123z" fill-rule="evenodd" stroke="#000" stroke-miterlimit="10" stroke-width=".036"/>
 <path d="m130.003,196.529c-1.124-1.123-1.941-3.882-2.862-5.925-.817-2.35-1.941-5.313-1.735-6.539-.206-1.124.817-1.838 1.532-1.021 .307.306.409,1.838 1.124,3.474 .51,1.225 1.327,4.188 2.042,5.72 .308,1.432 1.226,2.35 1.226,3.168-.305.511-.612,1.941-1.327,1.123z" fill-rule="evenodd" stroke="#000" stroke-miterlimit="10" stroke-width=".036"/>
 <path d="m136.03,194.588c-.409-.306-.717-1.43-.511-2.554 0-1.533.511-3.678 1.124-5.21 .511-1.635 1.327-3.065 2.043-4.292 .307-1.634 0-3.473.613-4.699 .715-1.43 1.327-3.474 2.248-3.78 .509-.715 1.02.102 1.123.918-.409.614-1.021,2.146-1.429,3.474-.715,1.431-.512,2.657-.921,4.495-.612,1.738-1.838,3.678-2.145,5.416-.511,1.227-.921,2.451-.817,3.269-.409.613.102,1.021 0,1.636-.306.51-1.124,1.327-1.328,1.327z" fill-rule="evenodd" stroke="#000" stroke-miterlimit="10" stroke-width=".036"/>
 <path d="m146.859,284.288c-3.474.407-6.539.305-9.194.102-2.657-.512-5.005-1.124-7.459-2.247-2.962-1.433-5.618-4.292-9.092-5.825-3.781-1.734-8.582-3.268-11.647-4.598-3.166-1.225-4.801-2.654-6.129-3.88-1.737-1.943-2.656-4.088-2.758-6.028-.409-1.942-.103-4.495 1.736-5.723 1.942-1.635 5.007-3.268 9.195-3.37 3.781-.308 8.888.306 13.689,1.431 4.804.612 9.911,3.472 14.101,3.883 3.677.407 4.392.102 8.785-.921 4.189-1.532 11.239-5.62 16.45-6.742 4.903-1.126 10.216-1.228 13.588-.308 2.962.308 4.903.92 5.414,3.064 .409,1.943-.613,5.62-2.248,8.686-2.35,2.553-6.334,5.721-8.786,7.968-2.043,1.94-2.759,3.781-4.087,5.519-1.737,1.94-2.554,4.188-5.62,5.925-3.269,1.328-7.661,2.248-13.179,2.758-.101,4.495.715,8.99 1.329,13.078 .612,4.29 1.327,7.66 3.269,11.645 1.635,3.678 4.904,6.948 7.458,9.809 2.147,2.452 4.395,4.089 7.152,5.313 2.759.919 6.845,1.327 9.91,1.225 2.555-.613 5.211-1.532 7.97-3.575 3.166-2.146 6.742-6.846 9.093-8.173 1.736-1.533 1.939-.309 1.839.51-.614.715-2.043,2.658-3.883,4.598-2.043,1.737-4.598,4.599-7.663,6.233-3.78,1.635-7.967,2.554-12.156,2.757-4.087-.305-8.072-2.042-11.137-4.085-3.064-2.351-6.027-6.438-7.764-9.093-2.043-2.86-3.371-5.21-3.983-7.458-.614,4.085-1.533,7.763-3.167,11.442-1.737,3.474-3.883,7.355-6.437,9.706-2.758,2.042-5.721,3.473-8.888,3.88-3.474.103-7.151-.305-10.625-1.225-3.781-1.123-7.151-2.452-10.114-3.985-2.963-1.735-6.333-4.394-7.355-5.618-1.226-1.327-.919-2.658-.204-2.452 .409-.103 1.226.51 2.861,1.841 1.533.817 3.166,2.552 5.721,3.982 2.247,1.125 4.597,2.452 7.866,3.577 3.065.817 7.56,1.532 10.729,1.735 2.759-.104 5.005-.918 7.151-2.451 1.941-1.329 3.781-3.679 5.516-6.643 1.533-3.78 3.883-9.603 4.7-13.588 .511-3.777.101-6.64 0-9.397-.308-3.168-1.124-6.948-1.328-8.99-.414-2.25-.619-3.68-.619-4.292z" fill-rule="evenodd" stroke="#000" stroke-miterlimit="10" stroke-width=".036"/>
 <path d="m105.38,259.664c0,.41.512.817 1.023.817s1.022-.407 1.022-.817c0-.51-.512-.814-1.022-.814s-1.023.304-1.023.814z" fill="#fff" fill-rule="evenodd" stroke="#000" stroke-miterlimit="10" stroke-width=".036"/>
 <path d="m107.322,257.929c0,.408.409.817.92.817 .612,0 1.021-.409 1.021-.817 0-.513-.41-.817-1.021-.817-.511-.001-.92.304-.92.817z" fill="#fff" fill-rule="evenodd" stroke="#000" stroke-miterlimit="10" stroke-width=".036"/>
 <path d="m126.732,258.746c0,.511.409.818 1.023.818 .51,0 .918-.308.918-.818 0-.409-.409-.817-.918-.817-.614,0-1.023.408-1.023.817z" fill="#fff" fill-rule="evenodd" stroke="#000" stroke-miterlimit="10" stroke-width=".036"/>
 <path d="m129.696,260.177c0,.407.408.817 1.022.817 .51,0 1.021-.41 1.021-.817 0-.513-.511-.817-1.021-.817-.614-.001-1.022.304-1.022.817z" fill="#fff" fill-rule="evenodd" stroke="#000" stroke-miterlimit="10" stroke-width=".036"/>
 <path d="m174.035,261.71c0,.51.511.817 1.023.817s1.021-.308 1.021-.817c0-.411-.511-.817-1.021-.817s-1.023.406-1.023.817z" fill="#fff" fill-rule="evenodd" stroke="#000" stroke-miterlimit="10" stroke-width=".036"/>
 <path d="m160.652,277.442c0,.51.511.817 1.021.817s1.023-.308 1.023-.817c0-.41-.511-.817-1.023-.817s-1.021.407-1.021.817z" fill="#fff" fill-rule="evenodd" stroke="#000" stroke-miterlimit="10" stroke-width=".036"/>
 <path d="m120.5,255.579c-.919-.103-1.941-.308-2.655-.205-1.021,0-1.839-.103-2.861.103-1.124.103-2.452.103-3.167.408-1.021.102-1.635.307-1.839.614-.305.203-.204.51.307.917 0,.104.206.104 1.022,0 .817-.305 2.043-.813 3.678-.714 1.328-.306 2.146,0 3.575.102 .715,0 2.045.205 2.862.612 .918.205 2.042.616 2.962.818 .511-.101.919-.818.816-.918-.305-.41-1.02-.714-1.735-.92-.716-.307-2.351-.714-2.965-.817z" fill="#fff" fill-rule="evenodd" stroke="#000" stroke-miterlimit="10" stroke-width=".036"/>
 <path d="m166.577,269.779c.307-1.022.511-1.125 1.022-1.532 .307-.715 1.226-1.225 1.941-1.533 .307-.714 1.226-.509 1.635-.919 .715-.716.919-1.636 1.736-1.94 .206-.308 1.124-.41 1.124.103-.101.305-.715,1.636-1.021,2.35-.511.306-1.533.716-1.941,1.226-.817.205-1.431.612-1.839,1.225-.817.205-.715.921-1.225,1.738-.614,1.022-1.738,1.939-2.25,3.167-.816.716-1.43,1.43-1.839,1.738-.817,0-.715-.41-.817-.817-.205-.615.511-.921 1.023-1.738 .409-1.227 1.736-2.25 2.451-3.068z" fill="#fff" fill-rule="evenodd" stroke="#000" stroke-miterlimit="10" stroke-width=".036"/>
 <path d="m160.855,373.579c-5.107-.308-8.785-1.636-10.624-4.394-2.044-2.962-2.861-6.947-.92-12.361 1.429-5.721 3.27-15.632 11.034-20.636 7.764-5.313 23.191-10.219 34.429-9.196 10.828,1.123 23.293,8.48 30.239,14.915 6.538,6.028 10.828,13.996 9.706,21.149-1.533,6.845-11.951,14.607-17.879,19.308-6.333,3.986-13.895,5.518-17.98,6.131-4.188.308-6.333-.716-6.437-3.474-7.354,3.268-13.485,3.982-18.798,2.146-5.209-1.942-9.603-6.336-12.77-13.588z" fill-rule="evenodd" stroke="#000" stroke-miterlimit="10" stroke-width=".036"/>
 <path d="m190.994,382.569c-4.29,2.86-7.968,3.678-12.156,3.27-4.189-1.021-9.502-3.882-12.057-6.947-2.861-3.065-5.312-6.948-3.779-10.831 1.533-4.084 6.129-8.274 13.382-12.975-5.312,1.125-9.296,3.167-11.953,5.723-2.962,2.452-4.086,5.823-4.495,9.706-4.189.407-7.049-.41-8.173-2.861-1.329-2.76-1.226-7.05.307-11.648 1.124-4.901 2.758-12.055 7.662-16.346 4.802-4.802 14.201-7.967 21.557-9.499 7.355-1.635 14.608-1.431 21.353.201 6.13,1.533 11.442,6.541 15.938,9.911 4.189,3.065 7.659,5.925 10.01,9.706 2.248,3.677 4.905,7.765 3.576,12.667-1.633,5.008-7.763,11.238-12.87,15.532-5.416,3.982-15.121,7.661-19.311,7.457-4.597-1.125-7.662-7.153-7.662-11.34-.306-4.29 1.737-8.786 6.13-13.486-4.597,1.94-7.355,4.598-8.683,8.377-1.33,3.472-.921,8.071 1.224,13.383z" fill="#ffc080" fill-rule="evenodd" stroke="#000" stroke-miterlimit="10" stroke-width=".036"/>
 <path d="m430.567,234.023c-1.532-.307-2.35-.41-4.084-.307-1.943,0-4.906.205-6.131.205-1.431-.308-2.556-1.228-1.431-1.533 1.123-.92 4.698-1.43 7.562-1.533 2.757-.205 6.332.51 7.967,1.328 1.023.41.206,2.35-.51,2.655-.714.103-2.349-.714-3.373-.815z" fill-rule="evenodd" stroke="#000" stroke-miterlimit="10" stroke-width=".036"/>
 <path d="m431.385,239.846c-1.225-.102-2.246-.308-3.473-.205-1.839-.305-4.292.41-5.415.205-1.43-.41-2.247-1.022-1.225-1.43 .612-.612 4.394-1.431 6.64-1.328 2.248-.103 5.618.408 6.948,1.123 1.225.307-.204,2.145-.41,2.35-.92,0-1.94-.51-3.065-.715z" fill-rule="evenodd" stroke="#000" stroke-miterlimit="10" stroke-width=".036"/>
 <path d="m333.614,151.577c-.306.919-.306,2.248-.407,3.984-.41,1.635.204,4.597-.104,6.13-.407,1.225-1.327,2.248-1.635,1.43-.817-1.226-1.226-5.209-1.226-7.662 .103-2.657.817-6.844 1.734-7.867 .719-1.123 2.148-.409 2.658.614 .208.409-.918,2.043-1.02,3.371z" fill-rule="evenodd" stroke="#000" stroke-miterlimit="10" stroke-width=".036"/>
 <path d="m339.539,150.964c-.306.92-.306,1.941-.407,3.474-.41,1.635.204,3.984-.103,5.416-.205,1.123-1.328,1.941-1.431,1.225-.509-1.225-1.225-4.393-1.022-6.743-.202-2.145.817-6.129 1.532-6.844 .716-1.124 1.738-.308 2.248.51 .103.305-.714,1.94-.817,2.962z" fill-rule="evenodd" stroke="#000" stroke-miterlimit="10" stroke-width=".036"/>
 <path d="m68.295,368.674c-5.21-.306-8.582-1.632-10.522-4.393-2.248-2.963-2.554-6.947-.92-12.36 1.432-5.724 3.27-15.633 11.034-20.639 7.764-5.313 23.191-10.215 34.429-9.195 10.831,1.125 23.294,8.48 30.241,14.915 6.538,6.028 10.83,13.999 9.706,21.149-1.941,6.846-11.749,14.61-17.98,19.311-6.436,3.982-13.69,5.516-17.878,6.127-4.087.308-6.233-.714-6.437-3.473-7.356,3.271-13.486,3.986-18.798,2.146-5.62-1.94-9.401-6.332-12.875-13.588z" fill-rule="evenodd" stroke="#000" stroke-miterlimit="10" stroke-width=".036"/>
 <path d="m98.535,377.664c-4.29,2.863-7.968,3.681-12.157,3.271-4.188-1.022-9.502-3.883-12.056-6.947-3.065-3.065-5.415-6.945-3.883-10.828 1.533-4.089 6.028-8.275 13.485-12.977-5.311,1.122-9.296,3.169-11.953,5.721-2.86,2.452-4.393,5.825-4.598,9.705-4.29.41-6.844-.407-8.07-2.859-1.329-2.758-1.226-7.048.306-11.646 1.124-4.906 2.759-12.056 7.663-16.346 4.802-4.804 14.201-7.971 21.556-9.504 7.356-1.635 14.608-1.429 21.352.206 6.13,1.532 11.442,6.538 15.938,9.909 4.189,3.065 7.664,5.927 10.012,9.706 2.247,3.678 4.903,7.763 3.576,12.668-1.635,5.006-7.764,11.238-12.873,15.528-5.414,3.985-15.121,7.663-19.31,7.458-4.597-1.123-7.661-7.15-7.661-11.341-.307-4.29 1.736-8.785 6.13-13.485-4.803,1.942-7.459,4.598-8.787,8.378-1.427,3.476-.712,8.07 1.33,13.383z" fill="#ffc080" fill-rule="evenodd" stroke="#000" stroke-miterlimit="10" stroke-width=".036"/>
 <path d="m302.147,257.316c-1.122-.513-2.248-1.125-3.78-1.432-1.738-.613-4.903-1.021-5.925-1.634-1.328-.817-2.042-1.84-.921-1.942 1.229-.102 4.7-.102 7.663.817 2.556.716 6.028,2.453 7.253,3.576 .92.919-.814,2.147-1.328,2.452-1.018.104-1.734-1.429-2.962-1.837z" fill-rule="evenodd" stroke="#000" stroke-miterlimit="10" stroke-width=".036"/>
 <path d="m301.227,263.14c-1.121-.511-1.939-.92-3.267-1.229-1.635-.406-4.293-1.019-5.21-1.43-1.125-.817-1.942-1.532-.818-1.735 .818-.102 4.394,0 6.743.716 2.043.715 5.21,2.043 6.333,3.167 .512.918-.51,1.633-1.123,2.146-.818-.001-1.841-1.331-2.658-1.635z" fill-rule="evenodd" stroke="#000" stroke-miterlimit="10" stroke-width=".036"/>
 <path d="m427.81 300.12c-5.006 3.166-10.934 12.156-21.354 17.164-10.931 4.494-26.562 6.131-41.784 10.421-15.528 3.882-35.041 8.48-48.325 14.199-13.074 5.416-24.826 11.444-29.729 19.309-5.313 7.561-6.846 19.106-1.43 27.587 5.211 8.374 18.388 21.046 32.793 23.088 13.896 1.635 43.42-7.355 51.593-12.363 7.663-5.516 2.453-15.425-3.063-18.696-5.928-3.369-23.807 1.533-30.036-0.611-6.233-2.758-12.873-9.094-6.541-13.486 6.028-4.7 30.547-8.582 43.624-12.055 12.771-3.374 24.215-4.188 33.92-7.561 9.5-4.088 17.367-9.398 23.602-14.406 5.925-5.107 9.805-10.317 12.463-15.224 2.552-5.004 3.372-10.827 2.452-13.893-1.841-3.167-7.561-4.495-10.831-4.803-3.167-0.51-2.859-2.042-7.354 1.33z" fill-rule="evenodd" stroke="#000" stroke-miterlimit="10" stroke-width=".036"/>
 <path d="m426.787,303.087c1.636,1.837 3.476,3.981 5.107,7.968 1.532,3.677 2.863,8.172 4.396,13.896 2.963-4.19 5.107-7.971 6.435-11.341 1.125-3.78 2.043-6.846.818-9.196-1.431-2.247-6.948-3.677-8.684-4.29-1.839-.919-2.045-.919-2.966-.41-1.326.409-3.164,1.532-5.106,3.373z" fill="#ffc080" fill-rule="evenodd" stroke="#000" stroke-miterlimit="10" stroke-width=".036"/>
 <path d="m425.15 304.92c1.841 1.737 3.679 4.598 5.11 8.173 1.532 3.373 2.655 7.867 3.78 13.078-1.841 1.635-3.065 3.168-4.803 5.006-1.738 1.635-3.373 3.371-4.905 5.209-0.715-4.697-1.838-8.58-3.78-12.055-1.94-3.575-4.698-6.333-7.865-8.684 2.042-1.327 4.188-2.859 6.436-4.597 1.942-1.837 4.087-3.882 6.027-6.13z" fill="#a16121" fill-rule="evenodd" stroke="#000" stroke-miterlimit="10" stroke-width=".036"/>
 <path d="m411.564,316.366c-1.123.715-2.758.921-4.085,1.738-1.532.305-3.167,1.225-4.905,1.632 1.125,2.864 1.125,6.438 1.125,11.139-.308,4.697-1.125,9.705-2.452,16.243 5.822-2.146 10.317-4.495 13.896-5.926 3.369-1.533 5.72-3.27 7.048-4.087-.101-4.29-1.021-7.661-2.759-11.238s-4.494-6.742-7.868-9.501z" fill="#ffc080" fill-rule="evenodd" stroke="#000" stroke-miterlimit="10" stroke-width=".036"/>
 <path d="m400.736,320.656c.511,1.431.612,3.883.308,8.48-.513,4.29-1.125,10.217-2.25,17.776l-9.706,2.76c-.1-3.065-1.632-6.232-4.594-9.91-3.271-3.78-7.972-7.663-14.102-12.055 7.868-1.738 13.998-2.964 19.209-4.089 5.005-1.223 8.581-2.348 11.135-2.962z" fill="#a16121" fill-rule="evenodd" stroke="#000" stroke-miterlimit="10" stroke-width=".036"/>
 <path d="m368.145,328.217-8.069,2.043c2.248,2.35 4.187,5.518 5.415,9.503 1.225,3.883 2.042,8.481 2.452,14.2 5.311-1.532 9.193-2.962 12.463-3.473 3.065-.718 5.006-.92 6.233-.614-1.943-4.496-4.396-8.07-7.355-11.852-3.169-3.676-6.746-6.947-11.139-9.807z" fill="#ffc080" fill-rule="evenodd" stroke="#000" stroke-miterlimit="10" stroke-width=".036"/>
 <path d="m356.8 331.18c-4.902 1.326-10.01 2.76-14.916 4.292-5.313 1.633-11.443 3.165-15.22 4.595-3.681 1.125-6.233 1.738-7.256 2.248 3.883 1.433 7.256 3.577 10.522 6.846 3.168 2.961 5.518 7.05 7.869 11.852 3.677-1.021 7.967-1.736 12.463-2.964 4.494-1.328 9.602-2.348 14.915-3.88-0.306-5.724-1.327-10.421-2.655-14.102-1.327-3.983-3.373-6.945-5.722-8.887z" fill="#a16121" fill-rule="evenodd" stroke="#000" stroke-miterlimit="10" stroke-width=".036"/>
 <path d="m317.473,343.03c-2.962.718-5.925,2.35-9.705,4.498-3.779,2.042-7.97,5.006-12.567,8.477 6.643.819 12.157,1.738 17.368,3.883 5.107,2.044 9.093,4.188 12.77,7.562 .613-2.043 1.841-3.168 3.271-4.188 1.327-.817 3.27-1.532 5.416-1.329 .304-2.861-.716-5.823-3.476-8.889-2.759-3.371-7.254-6.437-13.077-10.014z" fill="#ffc080" fill-rule="evenodd" stroke="#000" stroke-miterlimit="10" stroke-width=".036"/>
 <path d="m292.853,357.642c-4.089,3.779-6.846,7.355-7.868,11.85-1.328,4.293-.921,8.788.817,13.896 8.378-4.292 15.733-7.05 22.476-8.686 6.743-1.633 12.463-1.734 17.574-.714l-.514-4.496c-5.515-3.677-10.931-6.948-16.242-8.683-5.519-1.84-10.931-3.271-16.243-3.167z" fill="#a16121" fill-rule="evenodd" stroke="#000" stroke-miterlimit="10" stroke-width=".036"/>
 <path d="m287.639,386.758c.817,1.737 2.351,4.393 4.598,6.845 2.248,2.35 5.008,5.62 8.687,8.686 4.8-4.19 9.808-7.971 15.425-11.341 5.621-3.678 11.34-6.948 17.98-9.808-2.45-.41-3.982-1.228-5.411-2.045-1.434-1.021-2.351-2.043-2.762-3.473-5.925-.613-11.34-.309-16.242.51-5.313.817-9.705,2.453-13.588,4.495-3.884,1.635-6.641,3.68-8.687,6.131z" fill="#ffc080" fill-rule="evenodd" stroke="#000" stroke-miterlimit="10" stroke-width=".036"/>
 <path d="m336.781,382.468c5.62-.308 10.729-.511 15.732-.206 5.006.103 10.014-.51 13.486.92 2.963,1.125 4.598,4.188 4.906,6.846 .304,2.556-.104,5.21-4.394,8.378-5.009,2.86-16.756,6.743-24.624,8.887-7.968,1.838-15.938,3.065-22.271,2.557-6.438-.92-11.747-2.761-15.938-6.644 4.802-4.595 9.808-8.274 15.427-11.851 5.416-3.473 11.444-6.435 17.676-8.887z" fill="#a16121" fill-rule="evenodd" stroke="#000" stroke-miterlimit="10" stroke-width=".036"/>
 <path d="m374.173,388.289c-1.225-.204-2.552-.51-3.982-.51-1.942-.103-4.905-.103-6.131,0-1.43-.41-2.556-1.327-1.43-1.635 .918-.817 4.902-1.225 7.66-1.225 2.452-.308 6.541,1.02 7.867,1.635 .818.715.104,2.146-.611,2.655-.715.104-2.35-.714-3.373-.92z" fill-rule="evenodd" stroke="#000" stroke-miterlimit="10" stroke-width=".036"/>
 <path d="m374.786,394.115c-1.227-.308-2.248-.308-3.473-.411-1.841-.204-4.29.206-5.416,0-1.43-.204-2.247-1.327-1.225-1.429 .92-.716 4.085-1.225 6.742-1.125 2.248-.203 5.617.817 6.948,1.532 .92.715-.206,1.737-.613,2.248-.613.102-2.145-.715-2.963-.815z" fill-rule="evenodd" stroke="#000" stroke-miterlimit="10" stroke-width=".036"/>
 <path d="m287.335,370.515c-1.431-.103-2.658,0-4.089.304-1.838.411-4.598.615-5.925,1.022-1.532-.305-2.757-.611-1.735-1.326s4.394-2.351 7.355-2.556c2.451-.306 6.436-.51 7.968.205 1.126.51.309,1.94-.102,2.758-1.02.101-2.043-.306-3.472-.407z" fill-rule="evenodd" stroke="#000" stroke-miterlimit="10" stroke-width=".036"/>
 <path d="m289.071,376.233c-1.227-.102-2.146.104-3.577.206-1.635.205-4.188.51-5.313.919-1.327-.102-2.348-.611-1.431-1.125 .514-.817 4.088-1.837 6.438-2.246 2.247-.306 5.515-.408 7.047.102 .921.41.309,1.737-.201,2.452-.715.104-1.84-.409-2.963-.308z" fill-rule="evenodd" stroke="#000" stroke-miterlimit="10" stroke-width=".036"/>
 <path d="m417.9,343.235c-.306-1.02-.715-2.247-1.225-3.268-.921-1.434-2.146-3.476-2.454-4.495-.51-1.229-.308-2.453.613-1.738 .817.408 2.555,3.065 3.985,5.211 .919,1.837 1.838,5.21 1.939,6.537-.51,1.023-1.532.817-2.248.613-.406-.817-.61-1.632-.61-2.86z" fill-rule="evenodd" stroke="#000" stroke-miterlimit="10" stroke-width=".036"/>
 <path d="m413.814,345.996c-.308-1.023-.817-1.942-1.125-2.761-.817-1.43-1.94-3.168-2.145-3.983-.308-1.228-.104-2.146.612-1.532 .308.511 2.757,2.553 3.473,4.596 .513,1.532 1.84,4.495 1.635,5.723-.205.92-1.635.715-1.94.51-.51-.717-.41-1.431-.51-2.553z" fill-rule="evenodd" stroke="#000" stroke-miterlimit="10" stroke-width=".036"/>
</svg>
