<?xml version="1.0" encoding="UTF-8"?>
<svg viewBox="0 0 635.125 735.01385" xmlns="http://www.w3.org/2000/svg">
 <g transform="translate(-2.9062 12.958)">
  <g transform="translate(0,-62)">
   <path d="m400.06 761.7c0 10.483-34.031 18.99-75.962 18.99s-75.962-8.5077-75.962-18.99l-29.695-113.05c0-14.581 47.334-26.414 105.66-26.414s105.66 11.834 105.66 26.414l-29.695 113.05" fill="#a00" fill-rule="evenodd" stroke="#28170b" stroke-width="6.7303"/>
   <path d="m349.51 777.6c0.35987-7.5572 9.1422-66.423 7.256-85.872-45.775-1.2628-107.81-0.34979-131.75-19.508 0.24811-0.86513-12.262-20.347-5.8469-27.362 56.718-62.026 92.463-24.092 108.63-24.338 0 0 96.47 29.294 101.52 23.739s-22.223 115.16-30.305 119.7-18.688 14.142-49.497 13.637z" fill="#800000" fill-rule="evenodd"/>
   <path d="m400.06 761.7c0 10.483-34.031 18.99-75.962 18.99s-75.962-8.5077-75.962-18.99l-29.695-113.05c0-14.581 47.334-26.414 105.66-26.414s105.66 11.834 105.66 26.414l-29.695 113.05" fill="none" stroke="#28170b" stroke-width="6.7303"/>
  </g>
  <path transform="translate(0,-62)" d="m285.87 534.15h86.337v126.71h-86.337z" fill="#784421" fill-rule="evenodd" stroke="#28170b" stroke-width="9.1"/>
  <path transform="translate(0,-62)" d="m339.94 535.7h24.317l1.0714 116.45h-24.317l-3.3443-55.367c-8.4498-1.3159-43.423-3.0191-43.547-6.6121l-0.38164-11.048 46.202-43.428z" fill="#502d16" fill-rule="evenodd" stroke="#502d16" stroke-width="7.6382"/>
  <path transform="matrix(.7396 0 0 .7396 430.81 75.636)" d="m-1.4286 686.65c0 18.137-64.32 32.857-143.57 32.857s-143.57-14.72-143.57-32.857c0-13.865 37.586-25.732 90.695-30.554 1.2877 7.3392 1.1561 34.729 1.786 35.274 18.795 16.264 101.29 13.521 119.06 1.3362 0.90948-0.62374-0.44184-34.16 0.15937-34.981 44.911 5.5553 75.443 16.429 75.443 28.925z" fill="#800000" fill-rule="evenodd" stroke="#28170b" stroke-width="9.1"/>
  <path transform="matrix(.7396 0 0 .7396 430.81 75.636)" d="m-8.9134 699.2c-7.0019 5.0991-56.835 20.302-136.09 20.302s-122.08-14.961-131.02-21.751c-11.039-8.3891 25.513-24.525 78.623-29.347 1.2877 7.3392 0.67324 22.415 1.3031 22.96 18.795 16.264 101.29 13.521 119.06 1.3362 0.90948-0.62374-0.44184-21.122 0.15937-21.943 44.911 5.5553 67.958 15.946 67.958 28.442z" fill="#520" fill-rule="evenodd" stroke="#28170b" stroke-width="9.1"/>
  <path d="m319.88 38.031c-30.271 51.771-71.399 100.14-128.5 127.38 23.14 34.352 35.855 36.263 47.781 40.594-28.93 35.515-74.955 77.677-125.98 97.299 15.872 16.578 25.44 25.63 41.232 38.045-41.285 65.471-93.701 85.059-146.5 110.38 174.65 184.34 469.62 143.39 625.12 2.25-0.0604-0.7144-0.45242-1.3558-0.6875-2.0312-55.192-26.412-89.62-27.911-146.75-110.59 8.9596-7.1142 32.574-25.545 39.192-44.612-52.776-23.624-103.63-55.983-123.97-90.732 16.789-6.1651 30.329-13.621 47.781-40.594-51.413-26.031-89.817-72.05-128.72-127.38z" fill="#8a0" fill-rule="evenodd" stroke="#22280b" stroke-opacity=".79618" stroke-width="10"/>
  <path d="m56.048 494.75c161.67 85.744 363.76 62.989 439.15 11.331-42.674-27.325-66.116-91.834-80.187-141.34-7.7042 15.763-170.52 3.9393-204.83-24.53 27.059-0.55951 170.68 21.763 224.67-11.131-21.212-8.1743-58.358-79.69-72.83-119.65-0.34002-0.98412-1.6324-1.7717-2.9153-1.7766-18.166-0.97875-46.092 0.09346-75.835-24.969 26.607-0.95872 64.103 5.2211 91.795-4.5869-21.134-31.39-43.067-87.423-55.336-134.01 33.113 49.275 73.6 89.627 123.42 121.14 14.549 8.4026-38.365 39.318-45.944 39.363 25.335 51.723 101.29 84.803 123.24 95.415-4.4503 15.024-17.796 28.661-37.003 41.002 38.545 70.997 86.858 82.455 145.42 113.08-16.022 29.422-86.799 61.783-137.65 89.3-94.012 50.873-362.57 36.709-435.17-48.637z" fill="#450"/>
  <path d="m319.88 38.031c-30.271 51.771-71.399 100.14-128.5 127.38 23.14 34.352 35.855 36.263 47.781 40.594-28.93 35.515-74.955 77.677-125.98 97.299 15.872 16.578 25.44 25.63 41.232 38.045-41.285 65.471-93.701 85.059-146.5 110.38 174.65 184.34 469.62 143.39 625.12 2.25-0.0604-0.7144-0.45242-1.3558-0.6875-2.0312-55.192-26.412-89.62-27.911-146.75-110.59 8.9596-7.1142 32.574-25.545 39.192-44.612-52.776-23.624-103.63-55.983-123.97-90.732 16.789-6.1651 30.329-13.621 47.781-40.594-51.413-26.031-89.817-72.05-128.72-127.38z" fill="none" stroke="#22280b" stroke-opacity=".79618" stroke-width="10"/>
  <path transform="matrix(.14633 -.086583 .086583 .14633 354.28 -29.832)" d="m-132.86 199.51c-3.0538 13.25-108.43 25.478-118.74 34.342-10.403 8.9434-39.022 111.84-52.688 113.04-13.545 1.1901-57.739-95.252-69.355-102.32-11.72-7.13-118.42-2.5515-123.79-15.178-5.3174-12.514 72.748-84.347 75.879-97.579 3.1593-13.35-34.168-113.42-23.818-122.42 10.259-8.9242 102.7 43.123 116.25 42.012 13.673-1.1208 97.307-67.544 109.07-60.482 11.658 6.9987-9.2761 111-4.032 123.54 5.2911 12.657 94.307 71.672 91.226 85.04z" fill="#fd5" fill-rule="evenodd" stroke="#d4aa00" stroke-opacity=".79618" stroke-width="10"/>
  <path d="m291.02 9.8522c7.0085 2.851 14.694 1.6384 22.042 1.7357 8.076-0.3208 7.5887-17.089 8.1293-23.235-1.9659 6.0656-7.0435 13.159-10.337 18.495m-6.1002 19.656c1.6213 1.3497 5.4492 6.1216 4.1578 8.1401-2.3586 4.0109-5.9385 7.0453-7.7208 10.426 1.3526-5.2245 3.0553-11.755 3.563-18.566zm27.33-19.393c0.63333 3.5348 4.7576 4.5662 7.8186 3.9233 2.8979-0.33094 9.3207 0.59613 11.943-0.28089" fill="#fea" fill-rule="evenodd" stroke="#fea"/>
  <path transform="matrix(.14633 -.086583 .086583 .14633 354.28 -29.832)" d="m-132.86 199.51c-3.0538 13.25-108.43 25.478-118.74 34.342-10.403 8.9434-39.022 111.84-52.688 113.04-13.545 1.1901-57.739-95.252-69.355-102.32-11.72-7.13-118.42-2.5515-123.79-15.178-5.3174-12.514 72.748-84.347 75.879-97.579 3.1593-13.35-34.168-113.42-23.818-122.42 10.259-8.9242 102.7 43.123 116.25 42.012 13.673-1.1208 97.307-67.544 109.07-60.482 11.658 6.9987-9.2761 111-4.032 123.54 5.2911 12.657 94.307 71.672 91.226 85.04z" fill="none" stroke="#d4aa00" stroke-width="10"/>
 </g>
</svg>
