<?xml version="1.0" encoding="UTF-8"?>
<svg viewBox="0 0 393.75 416.25" xmlns="http://www.w3.org/2000/svg" xmlns:xlink="http://www.w3.org/1999/xlink">
 <defs>
  <linearGradient id="b">
   <stop stop-color="#c80000" offset="0"/>
   <stop stop-color="#780101" offset=".5"/>
   <stop stop-color="#ee5353" offset=".75"/>
   <stop stop-color="#c40404" offset="1"/>
  </linearGradient>
  <linearGradient id="e" x1="308.25" x2="324.44" y1="470.48" y2="500.48" gradientTransform="matrix(.92905 .037636 -.037636 .92905 -48.329 -242.33)" gradientUnits="userSpaceOnUse">
   <stop stop-color="#5b390e" offset="0"/>
   <stop stop-color="#b59147" offset=".5"/>
   <stop stop-color="#504018" offset=".75"/>
   <stop stop-color="#a58323" offset="1"/>
  </linearGradient>
  <linearGradient id="a" x1="485.42" x2="405.8" y1="85.549" y2="134.07" gradientUnits="userSpaceOnUse">
   <stop stop-color="#7e0000" offset="0"/>
   <stop stop-color="#795e5e" offset=".5"/>
   <stop stop-color="#b34545" offset=".75"/>
   <stop stop-color="#5d5050" offset="1"/>
  </linearGradient>
  <linearGradient id="d" x1="378.03" x2="391.56" y1="129.02" y2="158.39" gradientUnits="userSpaceOnUse" xlink:href="#b"/>
  <linearGradient id="c" x1="408.97" x2="453.62" y1="99.225" y2="120.53" gradientUnits="userSpaceOnUse" xlink:href="#b"/>
 </defs>
 <g transform="matrix(.28719 .95787 -.95787 .28719 311.74 -108.46)" fill-rule="evenodd" stroke="#000">
  <path d="m347.59 157.44-323.53 159.72s-4.3216 3.4237-1.8553 8.1765 8.5541 2.1459 8.5541 2.1459l324.97-162.32-8.1336-7.7218z" fill="url(#e)" stroke-width="2"/>
  <path d="m398.47 117.8 34.262-56.431s1.1516-2.3033 4.8945-4.3187 10.077-5.4704 10.077-5.4704l2.5912 2.3033s-12.092 4.0308-14.684 8.3495-34.262 57.871-34.262 57.871l-2.8791-2.3033z" fill="url(#a)"/>
  <path d="m456.92 55.03s-12.668 7.4858-16.123 11.517-40.596 53.84-40.596 53.84l2.3033 1.1516s37.717-51.536 42.035-54.704 14.684-9.2132 14.684-9.2132l-2.3033-2.5912z" fill="url(#a)"/>
  <path d="m465.56 59.637s-13.82 8.6374-19.578 14.684-44.339 48.369-44.339 48.369l3.455 0.57583s43.187-46.93 50.097-51.824 13.244-9.789 13.244-9.789l-2.8791-2.0154z" fill="url(#a)"/>
  <path d="m405.96 123.84s47.218-42.035 52.976-45.778 15.259-9.2132 15.259-9.2132l1.7275 2.8791s-12.956 6.622-16.699 9.5011-51.536 44.914-51.536 44.914l-1.7275-2.3033z" fill="url(#a)"/>
  <path d="m408.26 126.43s51.536-38.005 58.446-41.172 14.396-7.1978 14.396-7.1978l0.86374 3.455s-13.532 6.3341-21.881 12.092-50.097 34.838-50.097 34.838l-1.7275-2.0154z" fill="url(#a)"/>
  <path d="m410.56 127.58s54.704-29.943 60.75-32.534 14.972-6.3341 14.972-6.3341l0.86374 3.167s-27.352 12.956-32.534 15.835-43.475 23.033-43.475 23.033l-0.57582-3.167z" fill="url(#a)"/>
  <path d="m412 131.04 79.176-33.398 0.86374 3.455-79.176 32.822-0.86374-2.8791z" fill="url(#a)"/>
  <path d="m413.16 134.78s57.583-17.563 63.629-19.866 17.275-6.622 17.275-6.622l1.1516 3.7429s-12.956 5.4704-20.73 7.7737-60.174 17.563-60.174 17.563l-1.1516-2.5912z" fill="url(#a)"/>
  <path d="m414.31 137.95s55.279-11.229 62.765-12.956 20.442-6.3341 20.442-6.3341l0.28791 3.7429s-15.835 5.1824-23.609 6.9099-60.174 11.517-60.174 11.517l0.28791-2.8791z" fill="url(#a)"/>
  <path d="m414.6 141.4s53.84-2.8791 63.341-4.8945 21.881-5.7583 21.881-5.7583l0.57583 3.7429s-14.684 4.6066-20.442 5.4704-65.356 4.3187-65.356 4.3187v-2.8791z" fill="url(#a)"/>
  <path d="m414.6 146.3s63.053-0.86374 67.372-1.4396 17.851-3.455 17.851-3.455v4.6066s-10.653 1.7275-17.851 2.8791-67.948-0.28791-67.948-0.28791l0.57582-2.3033z" fill="url(#a)"/>
  <path d="m344.92 157.82s31.383-12.38 34.838-15.259 18.714-25.336 18.714-25.336 10.653 4.0308 14.396 12.956 2.5912 19.29 2.5912 19.29-26.2-2.0154-34.262 2.5912-30.807 16.987-30.807 16.987 1.4396-2.8791-0.28791-6.0462-4.6066-4.6066-5.1824-5.1824z" fill="url(#d)" stroke-width="2"/>
  <path d="m411.43 93.899 3.167-4.9099s14.73 13.929 23.321 29.095c9.5142 16.795 12.38 32.246 12.38 32.246l-6.0462 0.28791s-2.8791-13.82-12.38-29.943-20.154-26.776-20.442-26.776z" fill="url(#c)" stroke-width="2"/>
 </g>
</svg>
